<?xml version="1.0" standalone="no"?>
<!DOCTYPE svg PUBLIC "-//W3C//DTD SVG 1.1//EN" "http://www.w3.org/Graphics/SVG/1.1/DTD/svg11.dtd" >
<svg>
<metadata>
Created by FontForge 20090914 at Wed Dec 28 13:09:32 2016
 By www-data
Copyright 1990-2003 Bitstream Inc. All rights reserved.
</metadata>
<defs>
<font id="Swiss721BT-RomanCondensed" horiz-adv-x="1024" >
  <font-face 
    font-family="Swis721 Cn BT"
    font-weight="400"
    font-stretch="condensed"
    units-per-em="2048"
    panose-1="2 11 5 6 2 2 2 3 2 4"
    ascent="1556"
    descent="-492"
    x-height="1151"
    cap-height="1540"
    bbox="-342 -483 2048 1972"
    underline-thickness="147"
    underline-position="-122"
    unicode-range="U+0020-U+F002"
  />
<missing-glyph horiz-adv-x="1229" 
d="M102 -362v1806h1024v-1806h-1024zM217 -248h795v1577h-795v-1577z" />
    <glyph glyph-name=".notdef" horiz-adv-x="1229" 
d="M102 -362v1806h1024v-1806h-1024zM217 -248h795v1577h-795v-1577z" />
    <glyph glyph-name="space" unicode=" " horiz-adv-x="510" 
 />
    <glyph glyph-name="exclam" unicode="!" horiz-adv-x="530" 
d="M180 0v211h170v-211h-170zM215 379l-43 723v438h186v-438l-43 -723h-100z" />
    <glyph glyph-name="quotedbl" unicode="&#x22;" horiz-adv-x="614" 
d="M524 1436v-555h-139v555h139zM229 1436v-555h-139v555h139z" />
    <glyph glyph-name="numbersign" unicode="#" horiz-adv-x="1575" 
d="M969 858h-260l-93 -264h261zM924 1458l-162 -454h256l164 454h164l-160 -454h301l-51 -146h-303l-93 -262h322l-51 -147h-322l-162 -453h-165l161 453h-258l-162 -453h-165l159 453h-309l53 147h310l92 262h-330l51 146h332l162 454h166z" />
    <glyph glyph-name="dollar" unicode="$" horiz-adv-x="1020" 
d="M457 897v489c-59.333 -6 -106.333 -31.167 -141 -75.5s-52 -100.833 -52 -169.5c0 -62 15.167 -112.167 45.5 -150.5s79.5 -69.5 147.5 -93.5zM457 -199l-0.000976562 196.999c-128 7.33301 -223.5 46.666 -286.5 117.999s-94.5 176.666 -94.5 315.999
c0 16 0.166992 28.167 0.5 36.5s0.833008 15.833 1.5 22.5l168 1c0 -6 -0.333008 -14.333 -1 -25s-1 -18.334 -1 -23.001c0 -103.333 16.667 -179.666 50 -228.999s85 -74 155 -74h8v578c-128 44 -220.167 99 -276.5 165s-84.5 151.667 -84.5 257
c0 112.667 32.333 203.334 97 272.001s152.667 105.667 264 111v139h88v-137c115.333 -11.333 202.5 -48.666 261.5 -111.999s88.5 -151.666 88.5 -264.999v-23h-164v9c0 75.333 -15.167 133.5 -45.5 174.5s-77.166 65.833 -140.499 74.5v-518
c146.667 -52.667 248.834 -111.5 306.501 -176.5s86.5 -151.5 86.5 -259.5c0 -132 -34.333 -235.333 -103 -310s-165.334 -114.667 -290.001 -120v-199h-88zM544.999 138.999c68.667 4.66699 122.667 31.3301 162 79.9971s59 114.334 59 197.001
c0 66.667 -18 121.834 -54 165.501s-91.667 77.834 -167 102.501v-545z" />
    <glyph glyph-name="percent" unicode="%" horiz-adv-x="1430" 
d="M1053 629c-50.667 0 -86.6689 -19.999 -108.002 -59.999s-32 -110.333 -32 -211c0 -81.333 11.333 -140.833 34 -178.5s58 -56.5 106 -56.5c48.667 0 84.334 21.167 107.001 63.5s34 109.166 34 200.499c0 81.333 -11.667 142 -35 182s-58.666 60 -105.999 60z
M773.998 383.001c0 123.333 23 215.666 69 276.999s115.333 92 208 92c96.667 0 168.167 -30.167 214.5 -90.5s69.5 -153.166 69.5 -278.499c0 -124 -24 -218.833 -72 -284.5s-117.333 -98.5 -208 -98.5c-96 0 -166.833 31.167 -212.5 93.5s-68.5 158.833 -68.5 289.5z
M372.998 1399c-50.667 0 -86.1689 -19.832 -106.502 -59.499s-30.5 -110.167 -30.5 -211.5c0 -82 10.833 -141.667 32.5 -179s56.5 -56 104.5 -56c48.667 0 84.334 21.167 107.001 63.5s34 109.166 34 200.499c0 81.333 -11.667 142 -35 182s-58.666 60 -105.999 60z
M93.9961 1153c0 123.333 22.998 215.667 68.998 277s115.333 92 208 92c96 0 167.333 -30.167 214 -90.5s70 -152.5 70 -276.5c0 -124.667 -24.167 -220 -72.5 -286s-118.166 -99 -209.499 -99c-95.333 0 -165.666 31 -210.999 93s-68 158.667 -68 290zM304.994 -28.9971
l694 1579h117l-692 -1579h-119z" />
    <glyph glyph-name="ampersand" unicode="&#x26;" horiz-adv-x="1253" 
d="M553 973c53.333 35.333 94.666 76.333 123.999 123s44 95 44 145s-12.833 89.5 -38.5 118.5s-60.5 43.5 -104.5 43.5c-44.667 0 -79.5 -14.5 -104.5 -43.5s-37.5 -69.167 -37.5 -120.5c0 -32.667 10.333 -72.5 31 -119.5s49.334 -95.833 86.001 -146.5zM836 276
l-338 492.001c-71.333 -46.667 -124 -97.334 -158 -152.001s-51 -116 -51 -184c0 -85.333 26.833 -157.5 80.5 -216.5s120.167 -88.5 199.5 -88.5c50.667 0 99.167 13 145.5 39s86.833 62.667 121.5 110zM1026 0.000976562l-106.003 149.997
c-48 -57.333 -104.667 -101.166 -170 -131.499s-135.666 -45.5 -210.999 -45.5c-125.333 0 -227.333 41.833 -306 125.5s-118 192.167 -118 325.5c0 96.667 24.333 181.334 73 254.001s126.667 141 234 205c-46.667 61.333 -83 122.5 -109 183.5s-39 115.833 -39 164.5
c0 92.667 28.333 168 85 226s131 87 223 87c87.333 0 159.333 -27.833 216 -83.5s85 -126.834 85 -213.501c0 -75.333 -21.333 -145.166 -64 -209.499s-106.667 -122.833 -192 -175.5l295 -430c10.667 32.667 20.334 73.334 29.001 122.001s15.334 103 20.001 163h164
c-6 -88.667 -19 -168.5 -39 -239.5s-46 -130.5 -78 -178.5l207 -299h-199z" />
    <glyph glyph-name="quotesingle" unicode="'" horiz-adv-x="317" 
d="M229 1436v-555h-139v555h139z" />
    <glyph glyph-name="parenleft" unicode="(" horiz-adv-x="653" 
d="M504 -449c-111.333 182 -192.168 352.333 -242.501 511s-75.5 322.334 -75.5 491.001c0 178 26.333 348.5 79 511.5s132.334 321.5 239.001 475.5h117c-89.333 -138 -154.333 -284.333 -195 -439s-61 -335.334 -61 -542.001c0 -139.333 7.33301 -260.5 22 -363.5
s38 -197.5 70 -283.5c21.333 -56.667 45.5 -115 72.5 -175s57.5 -122 91.5 -186h-117z" />
    <glyph glyph-name="parenright" unicode=")" horiz-adv-x="653" 
d="M172 -449h-117c31.333 60 60.333 119.667 87 179s51.667 120 75 182c32.667 88 56.5 183.833 71.5 287.5s22.5 223.5 22.5 359.5c0 206.667 -20.333 387.334 -61 542.001s-105.667 301 -195 439h117c106.667 -154 186.167 -312.5 238.5 -475.5s78.5 -333.5 78.5 -511.5
c0 -168.667 -25 -332.334 -75 -491.001s-130.667 -329 -242 -511z" />
    <glyph glyph-name="asterisk" unicode="*" 
d="M510 1057l-178 -260l-117 84l201 245l-295 80l45 137l283 -102v299h122v-299l281 98l51 -131l-297 -82l201 -245l-117 -84z" />
    <glyph glyph-name="plus" unicode="+" horiz-adv-x="1706" 
d="M924 1221v-541h528v-139h-528v-541h-142v541h-528v139h528v541h142z" />
    <glyph glyph-name="comma" unicode="," horiz-adv-x="512" 
d="M160 -295v96c27.333 5.33301 48.5 24.333 63.5 57s22.5 76.667 22.5 132v10h-86v211h182v-211c0 -77.333 -16.333 -142.333 -49 -195s-77 -86 -133 -100z" />
    <glyph glyph-name="hyphen" unicode="-" horiz-adv-x="676" 
d="M90 485v181h494v-181h-494z" />
    <glyph glyph-name="period" unicode="." horiz-adv-x="512" 
d="M164 0v211h182v-211h-182z" />
    <glyph glyph-name="slash" unicode="/" horiz-adv-x="569" 
d="M582 1577l-549 -1767h-111l549 1767h111z" />
    <glyph glyph-name="zero" unicode="0" horiz-adv-x="1020" 
d="M272 766c0 -249.333 17.832 -419.5 53.499 -510.5s97.834 -136.5 186.501 -136.5s150.167 41.167 184.5 123.5s51.5 256.166 51.5 521.499c0 247.333 -17.667 415 -53 503s-97 132 -185 132c-89.333 0 -151.333 -42.167 -186 -126.5s-52 -253.166 -52 -506.499z
M93.999 762c0 288.667 32 491.832 96 609.499s170.667 176.5 320 176.5c75.333 0 139.833 -16.5 193.5 -49.5s99.834 -83.833 138.501 -152.5c29.333 -53.333 50.666 -124.666 63.999 -213.999s20 -213.333 20 -372c0 -286 -31.667 -489.333 -95 -610
s-168.333 -181 -315 -181c-152.667 0 -261.167 59 -325.5 177s-96.5 323.333 -96.5 616z" />
    <glyph glyph-name="one" unicode="1" horiz-adv-x="1020" 
d="M481 0l0.00195312 1133h-327v131h20c109.333 0 191.666 23.333 246.999 70s85.666 118.667 90.999 216h135v-1550h-166z" />
    <glyph glyph-name="two" unicode="2" horiz-adv-x="1020" 
d="M101 0c-1.33301 7.33301 -2.16699 15 -2.5 23s-0.5 20 -0.5 36c0 100.667 22 195.334 66 284.001s111.667 173.667 203 255l75 67c104 92 173 157.667 207 197c28 32.667 48.333 70 61 112s19 92 19 150c0 88.667 -19.667 156.667 -59 204s-95.333 71 -168 71
c-74.667 0 -130.5 -26.333 -167.5 -79s-55.5 -132.334 -55.5 -239.001l1 -17c0.666992 -11.333 1 -22.666 1 -33.999h-166c0 6 -0.333008 15.167 -1 27.5s-1 21.5 -1 27.5c0 149.333 34.5 264.5 103.5 345.5s166.833 121.5 293.5 121.5c124.667 0 222 -36.833 292 -110.5
s105 -176.5 105 -308.5c0 -67.333 -6.83301 -126.5 -20.5 -177.5s-35.5 -98.5 -65.5 -142.5c-30 -46.667 -97 -112 -201 -196l-59 -48c-104.667 -86.667 -178.5 -161.334 -221.5 -224.001s-65.167 -125 -66.5 -187h647v-158h-819z" />
    <glyph glyph-name="three" unicode="3" horiz-adv-x="1020" 
d="M82 459l170.002 -0.00195312v-25c0 -106 19.333 -185 58 -237s97.667 -78 177 -78c84.667 0 148.5 26.5 191.5 79.5s64.5 130.833 64.5 233.5s-24.667 178.5 -74 227.5s-126.333 73.5 -231 73.5c-14.667 0 -25.667 -0.166992 -33 -0.5s-14 -0.5 -20 -0.5v140h35
c97.333 0 168.333 21.833 213 65.5s67 112.834 67 207.501c0 80.667 -19.333 143.5 -58 188.5s-93 67.5 -163 67.5c-68.667 0 -120.334 -23.833 -155.001 -71.5s-52 -118.834 -52 -213.501v-24h-163v22c0 135.333 33.333 241.5 100 318.5s158 115.5 274 115.5
c119.333 0 213.666 -34.5 282.999 -103.5s104 -162.833 104 -281.5c0 -93.333 -19.5 -171.166 -58.5 -233.499s-91.833 -99.833 -158.5 -112.5c90 -16 157 -55 201 -117s66 -148.667 66 -260c0 -149.333 -37.833 -265.166 -113.5 -347.499s-182.167 -123.5 -319.5 -123.5
c-132 0 -232.5 40.5 -301.5 121.5s-103.5 198.833 -103.5 353.5v15z" />
    <glyph glyph-name="four" unicode="4" horiz-adv-x="1020" 
d="M205 541h416l18 788zM621 0v393h-558v150l572 1005h149v-1007h144v-148h-144v-393h-163z" />
    <glyph glyph-name="five" unicode="5" horiz-adv-x="1020" 
d="M88 405l168.002 1v-13c0 -86.667 20 -153.667 60 -201s96.333 -71 169 -71c80.667 0 142.167 32 184.5 96s63.5 157 63.5 279s-21 213.5 -63 274.5s-105 91.5 -189 91.5c-54.667 0 -100.834 -12.5 -138.501 -37.5s-63.834 -60.167 -78.501 -105.5l-145 12l84 791h649
v-156h-516l-55 -459c14.667 33.333 44 60.166 88 80.499s95 30.5 153 30.5c120 0 214.833 -44.5 284.5 -133.5s104.5 -211.167 104.5 -366.5c0 -173.333 -37 -308.166 -111 -404.499s-178.333 -144.5 -313 -144.5c-128.667 0 -227 37.333 -295 112
s-102.667 182.667 -104 324z" />
    <glyph glyph-name="six" unicode="6" horiz-adv-x="1020" 
d="M279 500c0 -122.667 21.835 -217.166 65.502 -283.499s105.5 -99.5 185.5 -99.5c75.333 0 133.166 32.5 173.499 97.5s60.5 158.167 60.5 279.5c0 113.333 -20.833 199.666 -62.5 258.999s-102.834 89 -183.501 89c-82.667 0 -143.167 -27.5 -181.5 -82.5
s-57.5 -141.5 -57.5 -259.5zM258.002 797.001c24.667 62 61.8291 109.498 111.496 142.498s108.834 49.5 177.501 49.5c122.667 0 218.834 -43 288.501 -129s104.5 -205.333 104.5 -358c0 -164 -37 -293.833 -111 -389.5s-173.667 -143.5 -299 -143.5
c-151.333 0 -261.5 58.333 -330.5 175s-103.5 304.334 -103.5 563.001c0 300.667 34.833 516.334 104.5 647.001s183.167 196 340.5 196c108.667 0 195.167 -33.167 259.5 -99.5s96.5 -155.833 96.5 -268.5h-170v10c0 64.667 -17.167 115.667 -51.5 153
s-81.166 56 -140.499 56c-91.333 0 -157.166 -41.333 -197.499 -124s-66.833 -242.667 -79.5 -480z" />
    <glyph glyph-name="seven" unicode="7" horiz-adv-x="1020" 
d="M240 0c31.333 260 92 502.501 182 727.501s209.333 433.833 358 626.5h-688v168h836v-148c-148 -196.667 -263.833 -411.334 -347.5 -644.001s-133.167 -476 -148.5 -730h-192z" />
    <glyph glyph-name="eight" unicode="8" horiz-adv-x="1020" 
d="M508 1405c-64 0 -112.833 -21.834 -146.5 -65.501s-50.5 -107.167 -50.5 -190.5c0 -74 17.833 -133.167 53.5 -177.5s83.5 -66.5 143.5 -66.5c66.667 0 117.834 21.833 153.501 65.5s53.5 105.834 53.5 186.501c0 77.333 -18.333 138 -55 182s-87.334 66 -152.001 66z
M270 458.999c0 -112.667 20.5 -197.5 61.5 -254.5s101.833 -85.5 182.5 -85.5c73.333 0 131 27.833 173 83.5s63 132.167 63 229.5c0 111.333 -20.167 193.5 -60.5 246.5s-102.166 79.5 -185.499 79.5c-74.667 0 -132.334 -26 -173.001 -78s-61 -125.667 -61 -221z
M362 830.999c-72.667 20.667 -127 57.834 -163 111.501s-54 124.5 -54 212.5c0 124 32.833 220.833 98.5 290.5s156.5 104.5 272.5 104.5c112.667 0 202 -34.333 268 -103s99 -162 99 -280c0 -88.667 -18.5 -160.667 -55.5 -216s-92.167 -93 -165.5 -113
c90 -20.667 156.5 -62.334 199.5 -125.001s64.5 -150 64.5 -262c0 -153.333 -36.333 -272 -109 -356s-175 -126 -307 -126c-126.667 0 -227.667 41.5 -303 124.5s-113 194.5 -113 334.5c0 112 23.667 203.667 71 275s113 114 197 128z" />
    <glyph glyph-name="nine" unicode="9" horiz-adv-x="1020" 
d="M741 1020c0 122 -21.833 216 -65.5 282s-105.834 99 -186.501 99c-74.667 0 -132.167 -32.5 -172.5 -97.5s-60.5 -158.167 -60.5 -279.5c0 -114 20.833 -200.167 62.5 -258.5s102.834 -87.5 183.501 -87.5c82 0 142.333 27.5 181 82.5s58 141.5 58 259.5zM762 721
c-24.667 -62 -61.8291 -109.667 -111.496 -143s-108.834 -50 -177.501 -50c-122.667 0 -218.834 43.333 -288.501 130s-104.5 206.667 -104.5 360c0 164 37 293.667 111 389s173.333 143 298 143c152 0 262.5 -58.167 331.5 -174.5s103.5 -303.833 103.5 -562.5
c0 -300.667 -34.833 -516.5 -104.5 -647.5s-183.167 -196.5 -340.5 -196.5c-108.667 0 -195.5 33.5 -260.5 100.5s-97.5 156.5 -97.5 268.5h172v-10c0 -64.667 17.167 -115.667 51.5 -153s81.166 -56 140.499 -56c91.333 0 157.166 41.167 197.499 123.5
s66.833 241.833 79.5 478.5z" />
    <glyph glyph-name="colon" unicode=":" horiz-adv-x="512" 
d="M164 926v211h182v-211h-182zM164 0v211h182v-211h-182z" />
    <glyph glyph-name="semicolon" unicode=";" horiz-adv-x="512" 
d="M164 926v211h182v-211h-182zM164 -295v96c27.333 5.33301 48.833 24.5 64.5 57.5s23.5 76.833 23.5 131.5v10h-88v211h182v-211c0 -77.333 -16.333 -142.333 -49 -195s-77 -86 -133 -100z" />
    <glyph glyph-name="less" unicode="&#x3c;" horiz-adv-x="1706" 
d="M1442 1006l-969 -396l969 -393v-154l-1178 484v129l1178 483v-153z" />
    <glyph glyph-name="equal" unicode="=" horiz-adv-x="1706" 
d="M1452 481v-139h-1198v139h1198zM1452 879v-140h-1198v140h1198z" />
    <glyph glyph-name="greater" unicode="&#x3e;" horiz-adv-x="1706" 
d="M1442 676v-129l-1178 -484v154l971 393l-971 396v153z" />
    <glyph glyph-name="question" unicode="?" horiz-adv-x="1018" 
d="M430 388c-0.666992 11.333 -1.16699 22.8311 -1.5 34.498s-0.5 25.834 -0.5 42.501c0 70.667 10 132.5 30 185.5s64.667 120.833 134 203.5l16 19c87.333 103.333 131 207 131 311c0 74.667 -18.167 133.834 -54.5 177.501s-85.5 65.5 -147.5 65.5
c-70.667 0 -124.667 -26 -162 -78s-56 -127.667 -56 -227v-30h-165v26c0 148.667 32.5 262.334 97.5 341.001s159.5 118 283.5 118c118 0 211.667 -35.667 281 -107s104 -168 104 -290c0 -124.667 -60 -257 -180 -397l-3 -3l-2 -2
c-99.333 -116.667 -149 -226.334 -149 -329.001c0 -14.667 0.166992 -26.667 0.5 -36s0.5 -18 0.5 -26zM422 -0.00195312v211h170v-211h-170z" />
    <glyph glyph-name="at" unicode="@" horiz-adv-x="2048" 
d="M1284 854l56.9971 114.996h132l-146 -576c-2.66699 -10.667 -4.66699 -21 -6 -31s-2 -19.333 -2 -28c0 -30.667 8.5 -54 25.5 -70s41.833 -24 74.5 -24c32 0 66.167 8.83301 102.5 26.5s71.833 42.834 106.5 75.501c53.333 50.667 95 112.834 125 186.501
s45 151.5 45 233.5c0 172.667 -63.5 312.667 -190.5 420s-293.5 161 -499.5 161c-88.667 0 -170.667 -9.33301 -246 -28s-145.666 -47.334 -210.999 -86.001c-127.333 -76 -226 -175.833 -296 -299.5s-105 -260.167 -105 -409.5c0 -118 20.5 -220.667 61.5 -308
s105.167 -164 192.5 -230c66.667 -51.333 145.5 -90.833 236.5 -118.5s186.833 -41.5 287.5 -41.5c112.667 0 222.167 16.333 328.5 49s203.833 79.667 292.5 141l55 -82c-98.667 -74 -203.5 -129.667 -314.5 -167s-227.5 -56 -349.5 -56
c-126.667 0 -242.667 15.667 -348 47s-198.666 78 -279.999 140c-102.667 78.667 -179.334 170 -230.001 274s-76 222 -76 354c0 110 17.333 214.333 52 313s85 188.334 151 269.001c97.333 118.667 214.5 208.667 351.5 270s288.833 92 455.5 92c108.667 0 212 -15 310 -45
s182.333 -72.333 253 -127c86.667 -66.667 152.5 -143.667 197.5 -231s67.5 -181.666 67.5 -282.999c0 -116.667 -21.167 -221.667 -63.5 -315s-103.833 -172 -184.5 -236c-45.333 -36 -95.166 -63.667 -149.499 -83s-109.833 -29 -166.5 -29
c-66 0 -115.833 13.167 -149.5 39.5s-50.5 65.5 -50.5 117.5v19c-36.667 -59.333 -79.667 -103.166 -129 -131.499s-106.666 -42.5 -171.999 -42.5c-102 0 -179.833 28.333 -233.5 85s-80.5 139 -80.5 247c0 156.667 46 288 138 394s205 159 339 159
c56.667 0 105.167 -12.5 145.5 -37.5s72.5 -62.5 96.5 -112.5zM1190 474.996l58.999 236c-11.333 58.667 -34.166 104 -68.499 136s-77.5 48 -129.5 48c-92 0 -169.333 -43.333 -232 -130s-94 -193 -94 -319c0 -70 16.167 -124 48.5 -162s78.166 -57 137.499 -57
c64.667 0 122.834 23 174.501 69s86.5 105.667 104.5 179z" />
    <glyph glyph-name="A" unicode="A" horiz-adv-x="1126" 
d="M356 600h410l-205 807zM31 0l420 1540h219l426 -1540h-174l-117 444h-488l-112 -444h-174z" />
    <glyph glyph-name="B" unicode="B" horiz-adv-x="1108" 
d="M303 885l179.999 -0.000976562c108 0 183.833 20 227.5 60s65.5 108.667 65.5 206c0 92.667 -22.167 157.834 -66.5 195.501s-123.166 56.5 -236.499 56.5h-170v-518zM302.999 151.999l219 -0.000976562c104.667 0 180 22 226 66s69 116 69 216
c0 112.667 -24.5 192.334 -73.5 239.001s-132.833 70 -251.5 70h-189v-591zM136.999 -0.00195312l-0.000976562 1540h402c144 0 248.5 -30.5 313.5 -91.5s97.5 -158.833 97.5 -293.5c0 -92 -17.5 -165.833 -52.5 -221.5s-88.5 -93.834 -160.5 -114.501
c89.333 -18 155.333 -57.833 198 -119.5s64 -147.5 64 -257.5c0 -140.667 -38.667 -249.5 -116 -326.5s-186.666 -115.5 -327.999 -115.5h-418z" />
    <glyph glyph-name="C" unicode="C" horiz-adv-x="1157" 
d="M866 565l169.998 0.000976562c-2 -195.333 -42.5 -344.5 -121.5 -447.5s-192.833 -154.5 -341.5 -154.5c-158.667 0 -276.167 65.5 -352.5 196.5s-114.5 333.167 -114.5 606.5c0 285.333 37.833 491.833 113.5 619.5s197.834 191.5 366.501 191.5
c140.667 0 249.167 -40.833 325.5 -122.5s114.5 -197.834 114.5 -348.501v-19h-166c0 105.333 -24.667 188 -74 248s-116.666 90 -201.999 90c-104.667 0 -180 -50.833 -226 -152.5s-69 -270.5 -69 -506.5c0 -230.667 23.667 -394.834 71 -492.501
s125.333 -146.5 234 -146.5c87.333 0 154.5 35.833 201.5 107.5s70.5 173.834 70.5 306.501v24z" />
    <glyph glyph-name="D" unicode="D" horiz-adv-x="1192" 
d="M309 147l222.999 -0.00195312c72 0 127.833 7.33301 167.5 22s70.834 38.334 93.501 71.001c36 52.667 62 118.334 78 197.001s24 189 24 331c0 248.667 -26 414.667 -78 498s-149 125 -291 125h-217v-1244zM136.999 -0.00195312l-0.000976562 1540h436
c174.667 0 303.334 -58.333 386.001 -175s124 -298 124 -544c0 -173.333 -14.167 -316.166 -42.5 -428.499s-72.833 -201.5 -133.5 -267.5c-41.333 -45.333 -88 -77.5 -140 -96.5s-129.333 -28.5 -232 -28.5h-398z" />
    <glyph glyph-name="E" unicode="E" horiz-adv-x="1004" 
d="M137 0v1540h764v-160h-594v-495h555v-156h-555v-567h600v-162h-770z" />
    <glyph glyph-name="F" unicode="F" horiz-adv-x="885" 
d="M137 0v1540h711v-156h-535v-495h498v-160h-498v-729h-176z" />
    <glyph glyph-name="G" unicode="G" horiz-adv-x="1214" 
d="M954 0l-9.99902 213.003c-28 -80.667 -72.5 -142.5 -133.5 -185.5s-134.5 -64.5 -220.5 -64.5c-166 0 -288.167 66 -366.5 198s-117.5 338.333 -117.5 619c0 279.333 41.167 482 123.5 608s214.166 189 395.499 189c139.333 0 248.166 -41.833 326.499 -125.5
s118.166 -200.834 119.499 -351.501h-170c-3.33301 105.333 -29.666 186.666 -78.999 243.999s-118 86 -206 86c-119.333 0 -204.333 -52.333 -255 -157s-76 -285.334 -76 -542.001c0 -206 27 -358.5 81 -457.5s136.667 -148.5 248 -148.5c100.667 0 177.5 38.667 230.5 116
s79.5 189.666 79.5 336.999c0 18 -0.166992 31.833 -0.5 41.5s-1.16602 18.834 -2.49902 27.501h-348v156h514v-803h-133z" />
    <glyph glyph-name="H" unicode="H" horiz-adv-x="1200" 
d="M137 0v1540h176v-635h574v635h176v-1540h-176v750h-574v-750h-176z" />
    <glyph glyph-name="I" unicode="I" horiz-adv-x="451" 
d="M137 0v1540h176v-1540h-176z" />
    <glyph glyph-name="J" unicode="J" horiz-adv-x="862" 
d="M35 477l166.001 0.000976562v-149c0 -72 14.667 -126.167 44 -162.5s72.666 -54.5 129.999 -54.5c69.333 0 117.333 21.333 144 64s40 138 40 286v1079h166v-1196c0 -128.667 -29.333 -224 -88 -286s-148.667 -93 -270 -93c-109.333 0 -192 32.667 -248 98
s-84 161.666 -84 288.999v125z" />
    <glyph glyph-name="K" unicode="K" horiz-adv-x="1110" 
d="M137 0v1540h170v-741l557 741h199l-479 -622l514 -918h-209l-420 768l-162 -211v-557h-170z" />
    <glyph glyph-name="L" unicode="L" horiz-adv-x="975" 
d="M137 0v1540h172v-1374h615v-166h-787z" />
    <glyph glyph-name="M" unicode="M" horiz-adv-x="1511" 
d="M1204 0v1452l-375 -1452h-167l-359 1452v-1452h-168v1540h289l324 -1313l339 1313h285v-1540h-168z" />
    <glyph glyph-name="N" unicode="N" horiz-adv-x="1188" 
d="M137 0v1540h230l534 -1321l-16 1321h166v-1540h-220l-542 1360l14 -1360h-166z" />
    <glyph glyph-name="O" unicode="O" horiz-adv-x="1200" 
d="M285 770c0 -247.333 23.5 -418.333 70.5 -513s128.5 -142 244.5 -142c117.333 0 199.166 46.167 245.499 138.5s69.5 264.5 69.5 516.5c0 251.333 -23.167 423 -69.5 515s-128.166 138 -245.499 138c-116 0 -197.5 -47.167 -244.5 -141.5s-70.5 -264.833 -70.5 -511.5z
M106 770c0 286.667 38.833 492.83 116.5 618.497s203.5 188.5 377.5 188.5c175.333 0 301.5 -62.167 378.5 -186.5s115.5 -331.166 115.5 -620.499s-38.333 -496.166 -115 -620.499s-203 -186.5 -379 -186.5c-173.333 0 -299 63.333 -377 190s-117 332.334 -117 617.001z
" />
    <glyph glyph-name="P" unicode="P" horiz-adv-x="1085" 
d="M309 803l226 -0.000976562c104 0 180.5 24.833 229.5 74.5s73.5 127.834 73.5 234.501c0 98 -24.667 169 -74 213s-129.333 66 -240 66h-215v-588zM137 -0.000976562l0.000976562 1540h395c168 0 290.667 -34.5 368 -103.5s116 -177.833 116 -326.5
c0 -152.667 -40.333 -268 -121 -346s-199.334 -117 -356.001 -117h-230v-647h-172z" />
    <glyph glyph-name="Q" unicode="Q" horiz-adv-x="1200" 
d="M780 170l-162 137l99 115l145 -123c18 63.333 31.333 132 40 206s13 155.667 13 245c0 263.333 -23 441.333 -69 534s-128 139 -246 139c-115.333 0 -196.333 -46.833 -243 -140.5s-70 -264.5 -70 -512.5s23.333 -419.167 70 -513.5s127.667 -141.5 243 -141.5
c42 0 77 4.33301 105 13s53 22.667 75 42zM907 61c-29.333 -32 -69.833 -56.334 -121.5 -73.001s-113.5 -25 -185.5 -25c-173.333 0 -299 63.333 -377 190s-117 332.334 -117 617.001c0 286.667 38.833 492.834 116.5 618.501s203.5 188.5 377.5 188.5
c175.333 0 301.5 -62.167 378.5 -186.5s115.5 -331.166 115.5 -620.499c0 -138.667 -8.66699 -257.834 -26 -357.501s-42.333 -175.834 -75 -228.501l174 -141l-92 -117z" />
    <glyph glyph-name="R" unicode="R" horiz-adv-x="1196" 
d="M305 834h209c120.667 0 209.167 23.167 265.5 69.5s84.5 118.5 84.5 216.5c0 94 -25 162.333 -75 205s-130.667 64 -242 64h-242v-555zM137 0v1540h432c159.333 0 277.666 -32.5 354.999 -97.5s116 -164.167 116 -297.5c0 -103.333 -23.333 -185.833 -70 -247.5
s-118.667 -104.834 -216 -129.501c85.333 -7.33301 149.333 -35 192 -83s68.667 -122.333 78 -223c3.33301 -37.333 7 -89 11 -155c10.667 -168 37.667 -270.333 81 -307h-213c-21.333 35.333 -35 119 -41 251c-3.33301 66 -6.66602 118.333 -9.99902 157
c-9.33301 106 -36.833 178.5 -82.5 217.5s-127.5 58.5 -245.5 58.5h-219v-684h-168z" />
    <glyph glyph-name="S" unicode="S" horiz-adv-x="1098" 
d="M104 489l163.999 0.000976562v-55c0 -104.667 24.167 -183.667 72.5 -237s119.833 -80 214.5 -80c85.333 0 152.333 25.667 201 77s73 122 73 212c0 72 -14.833 127.5 -44.5 166.5s-96.5 78.167 -200.5 117.5l-104 39c-124.667 45.333 -200 79.333 -226 102
c-42.667 38 -74.5 83.167 -95.5 135.5s-31.5 113.166 -31.5 182.499c0 134 37 238.833 111 314.5s177 113.5 309 113.5c125.333 0 223.5 -35 294.5 -105s106.5 -166.667 106.5 -290c0 -4 -0.333008 -10.5 -1 -19.5s-1 -15.5 -1 -19.5h-158v16
c0 86.667 -21.167 153.5 -63.5 200.5s-102.166 70.5 -179.499 70.5c-80 0 -143 -22.5 -189 -67.5s-69 -105.833 -69 -182.5c0 -72.667 15.667 -129 47 -169s99.666 -79.333 204.999 -118l56 -21c160.667 -59.333 256.667 -103.666 288 -132.999
c38 -35.333 66.167 -78.333 84.5 -129s27.5 -111.334 27.5 -182.001c0 -146 -40.333 -259.667 -121 -341s-193 -122 -337 -122c-143.333 0 -251.666 40 -324.999 120s-110 197.667 -110 353c0 5.33301 0.333008 13.833 1 25.5s1 20.167 1 25.5z" />
    <glyph glyph-name="T" unicode="T" horiz-adv-x="995" 
d="M422 0v1382h-393v158h938v-158h-369v-1382h-176z" />
    <glyph glyph-name="U" unicode="U" horiz-adv-x="1180" 
d="M139 1540h172.002v-1036c0 -144 20.5 -244.167 61.5 -300.5s110.833 -84.5 209.5 -84.5c100 0 173.667 31 221 93s71 159.333 71 292v1036h168v-1005c0 -130 -7.33301 -221.833 -22 -275.5s-39.334 -101.167 -74.001 -142.5c-42 -50 -93.833 -87.833 -155.5 -113.5
s-131.834 -38.5 -210.501 -38.5c-80.667 0 -153 13.833 -217 41.5s-114.667 67.167 -152 118.5c-26 34.667 -44.5 79.167 -55.5 133.5s-16.5 146.5 -16.5 276.5v1005z" />
    <glyph glyph-name="V" unicode="V" horiz-adv-x="1075" 
d="M436 0l-430 1540h187l346 -1327l356 1327h172l-424 -1540h-207z" />
    <glyph glyph-name="W" unicode="W" horiz-adv-x="1620" 
d="M350 0l-325 1540h178l241 -1302l273 1302h196l267 -1292l245 1292h168l-325 -1540h-185l-270 1257l-274 -1257h-189z" />
    <glyph glyph-name="X" unicode="X" horiz-adv-x="1012" 
d="M-25 0l428 797l-407 743h209l305 -584l309 584h197l-412 -739l432 -801h-207l-325 645l-330 -645h-199z" />
    <glyph glyph-name="Y" unicode="Y" horiz-adv-x="1028" 
d="M424 0v596l-455 944h205l340 -758l356 758h187l-459 -944v-596h-174z" />
    <glyph glyph-name="Z" unicode="Z" horiz-adv-x="905" 
d="M47 0v160l621 1220h-586v160h768v-158l-617 -1216h625v-166h-811z" />
    <glyph glyph-name="bracketleft" unicode="[" horiz-adv-x="653" 
d="M233 -434v1974h363v-123h-197v-1726h197v-125h-363z" />
    <glyph glyph-name="backslash" unicode="\" horiz-adv-x="569" 
d="M549 -190l-549 1767h111l548 -1767h-110z" />
    <glyph glyph-name="bracketright" unicode="]" horiz-adv-x="653" 
d="M420 -434h-363v125h197v1726h-197v123h363v-1974z" />
    <glyph glyph-name="asciicircum" unicode="^" horiz-adv-x="2048" 
d="M1116 1458l510 -557h-180l-422 420l-424 -420h-180l510 557h186z" />
    <glyph glyph-name="underscore" unicode="_" 
d="M1024 -340v-143h-1024v143h1024z" />
    <glyph glyph-name="grave" unicode="`" 
d="M633 1276h-101l-247 270h178z" />
    <glyph glyph-name="a" unicode="a" horiz-adv-x="913" 
d="M616 621c-25.333 -28 -81.334 -57.668 -168.001 -89.001c-7.33301 -2.66699 -12.666 -4.66699 -15.999 -6c-74.667 -26 -123.334 -55.333 -146.001 -88s-34 -81 -34 -145c0 -57.333 12.667 -101.666 38 -132.999s61 -47 107 -47c66.667 0 119.834 25.333 159.501 76
s59.5 118.667 59.5 204v228zM869.999 -2.00098c-20 -3.33301 -37.498 -5.83398 -52.498 -7.50098s-28.833 -2.5 -41.5 -2.5c-45.333 0 -81 14.333 -107 43s-40 69.334 -42 122.001c-24.667 -58.667 -60.334 -103.667 -107.001 -135s-102 -47 -166 -47
c-83.333 0 -148.166 28 -194.499 84s-69.5 134.667 -69.5 236c0 99.333 21.5 175 64.5 227s135.833 102 278.5 150l3 1c117.333 39.333 176 85.333 176 138v106c0 47.333 -13.5 81.833 -40.5 103.5s-70.167 32.5 -129.5 32.5c-57.333 0 -100 -15 -128 -45s-42 -76 -42 -138
v-20h-151c2 117.333 30 203 84 257s139.333 81 256 81c109.333 0 189.166 -24.833 239.499 -74.5s75.5 -128.167 75.5 -235.5v-673c0 -30 5.33301 -51.5 16 -64.5s28 -19.5 52 -19.5c4.66699 0 12 1 22 3c1.33301 0 2.66602 0.333008 3.99902 1v-123z" />
    <glyph glyph-name="b" unicode="b" horiz-adv-x="981" 
d="M274 584c0 -166.667 17.667 -285.499 53 -356.499s93 -106.5 173 -106.5c74.667 0 128.834 37.167 162.501 111.5s50.5 195.5 50.5 363.5c0 150 -17.833 260.5 -53.5 331.5s-90.834 106.5 -165.501 106.5c-79.333 0 -135.833 -33.333 -169.5 -100
s-50.5 -183.334 -50.5 -350.001zM125 0.000976562l0.000976562 1540h160v-508c14 43.333 44 78.5 90 105.5s99.333 40.5 160 40.5c112 0 199 -49.333 261 -148s93 -238 93 -418c0 -207.333 -30.833 -365 -92.5 -473s-151.834 -162 -270.501 -162
c-61.333 0 -115 15.333 -161 46s-76.333 71.334 -91 122.001v-145h-149z" />
    <glyph glyph-name="c" unicode="c" horiz-adv-x="942" 
d="M680 405l158 0.998047c0 -139.333 -32 -247 -96 -323s-154.333 -114 -271 -114c-128 0 -222.833 50.333 -284.5 151s-92.5 255.334 -92.5 464.001c0 200.667 32 350.5 96 449.5s161 148.5 291 148.5c107.333 0 192.166 -32.833 254.499 -98.5s93.5 -155.167 93.5 -268.5
v-24h-157c-3.33301 80.667 -20.666 142 -51.999 184s-75.666 63 -132.999 63c-78.667 0 -134.834 -34.833 -168.501 -104.5s-50.5 -188.167 -50.5 -355.5c0 -169.333 17 -289.166 51 -359.499s90.667 -105.5 170 -105.5c60 0 106.333 25 139 75s50 122.333 52 217z" />
    <glyph glyph-name="d" unicode="d" horiz-adv-x="975" 
d="M705 584c0 168 -16.5 284.999 -49.5 350.999s-89.167 99 -168.5 99c-75.333 0 -131 -35.667 -167 -107s-54 -181.666 -54 -330.999c0 -166.667 17.167 -287.5 51.5 -362.5s88.833 -112.5 163.5 -112.5c79.333 0 136.5 35.333 171.5 106s52.5 189.667 52.5 357z
M856 -0.000976562l-151.001 0.000976562v145c-14.667 -50.667 -44.667 -91.334 -90 -122.001s-98.666 -46 -159.999 -46c-118.667 0 -209.167 54.167 -271.5 162.5s-93.5 265.833 -93.5 472.5c0 179.333 31.333 318.5 94 417.5s150 148.5 262 148.5
c60.667 0 114.167 -13.667 160.5 -41s75.5 -62.333 87.5 -105v508h162v-1540z" />
    <glyph glyph-name="e" unicode="e" horiz-adv-x="901" 
d="M256 700l391 0.000976562v31c0 106 -15.5 185.833 -46.5 239.5s-77.5 80.5 -139.5 80.5c-69.333 0 -120.833 -28.833 -154.5 -86.5s-50.5 -145.834 -50.5 -264.501zM649 389.001l158.001 -0.00195312c-1.33301 -136 -32.5 -240 -93.5 -312s-147.833 -108 -260.5 -108
c-124 0 -215.5 48.333 -274.5 145s-88.5 246.334 -88.5 449.001c0 214.667 29.5 371.834 88.5 471.501s151.833 149.5 278.5 149.5c119.333 0 208.166 -42.333 266.499 -127s87.5 -213.667 87.5 -387c0 -27.333 -0.166992 -48 -0.5 -62s-0.833008 -26.667 -1.5 -38l-553 -1
v-51c0 -144 16.667 -249 50 -315s86.333 -99 159 -99c56.667 0 101.5 24.833 134.5 74.5s49.5 117.167 49.5 202.5v8z" />
    <glyph glyph-name="f" unicode="f" horiz-adv-x="532" 
d="M166 0v1020h-162v131h162v156c0 83.333 21.833 144.333 65.5 183s112.5 58 206.5 58c10 0 19.833 -0.5 29.5 -1.5s22.5 -3.16699 38.5 -6.5l-1 -143c-11.333 2 -22.333 3.5 -33 4.5s-21.334 1.5 -32.001 1.5c-39.333 0 -67.166 -7.83301 -83.499 -23.5
s-24.5 -42.167 -24.5 -79.5v-149h174v-131h-174v-1020h-166z" />
    <glyph glyph-name="g" unicode="g" horiz-adv-x="973" 
d="M262 573c0 -160.667 16.834 -275.834 50.501 -345.501s88.5 -104.5 164.5 -104.5c79.333 0 136 35.333 170 106s51 190.334 51 359.001c0 158.667 -17.833 273.667 -53.5 345s-92.834 107 -171.501 107c-74 0 -127.667 -36.333 -161 -109s-50 -192 -50 -358z
M127.001 -106l160 -1c3.33301 -46.667 20.833 -81.834 52.5 -105.501s76.834 -35.5 135.501 -35.5c78.667 0 135.5 25.667 170.5 77s52.5 134.333 52.5 249c0 3.33301 -0.333008 11.666 -1 24.999s-1 25.333 -1 36c-23.333 -52 -56.5 -91.167 -99.5 -117.5
s-95.167 -39.5 -156.5 -39.5c-116.667 0 -203.834 51.833 -261.501 155.5s-86.5 261.167 -86.5 472.5c0 188.667 30.167 330.5 90.5 425.5s150.5 142.5 270.5 142.5c60.667 0 112.334 -14.167 155.001 -42.5s72.667 -68.166 90 -119.499v135h156v-1098
c0 -141.333 -34 -250.333 -102 -327s-164.333 -115 -289 -115c-98.667 0 -179.334 25.833 -242.001 77.5s-94 117.834 -94 198.501v7z" />
    <glyph glyph-name="h" unicode="h" horiz-adv-x="963" 
d="M123 0l0.000976562 1540h162v-514c30 50.667 67.833 88.334 113.5 113.001s100.5 37 164.5 37c88.667 0 157.667 -22.833 207 -68.5s74 -109.834 74 -192.501v-915h-162v838c0 68 -12.833 117.333 -38.5 148s-66.834 46 -123.501 46c-71.333 0 -128.333 -22.667 -171 -68
s-64 -106.666 -64 -183.999v-780h-162z" />
    <glyph glyph-name="i" unicode="i" horiz-adv-x="408" 
d="M121 1331v209h166v-209h-166zM121 0v1151h166v-1151h-166z" />
    <glyph glyph-name="j" unicode="j" horiz-adv-x="426" 
d="M147 1333v207h160v-209zM20 -387v136.999h9c46.667 0 78 9.33301 94 28s24 60 24 124v1249h160v-1262c0 -97.333 -20.833 -167.666 -62.5 -210.999s-109.5 -65 -203.5 -65h-21z" />
    <glyph glyph-name="k" unicode="k" horiz-adv-x="868" 
d="M123 0v1540h156v-911l393 522h188l-344 -436l371 -715h-197l-284 567l-127 -157v-410h-156z" />
    <glyph glyph-name="l" unicode="l" horiz-adv-x="401" 
d="M121 0v1540h160v-1540h-160z" />
    <glyph glyph-name="m" unicode="m" horiz-adv-x="1528" 
d="M123 0v1151h149v-139c31.333 54.667 72.5 96 123.5 124s110.833 42 179.5 42c64.667 0 118.167 -14.333 160.5 -43s71.5 -70.334 87.5 -125.001c34 56 75.667 98 125 126s107.333 42 174 42c93.333 0 164.833 -24.333 214.5 -73s74.5 -118.667 74.5 -210v-895h-166v795
c0 93.333 -12 156.5 -36 189.5s-66 49.5 -126 49.5c-68.667 0 -124.667 -21.667 -168 -65s-65 -99.333 -65 -168v-801h-166v801c0 84.667 -12.833 144.667 -38.5 180s-68.167 53 -127.5 53c-70 0 -127 -21 -171 -63s-66 -96 -66 -162v-809h-158z" />
    <glyph glyph-name="n" unicode="n" horiz-adv-x="963" 
d="M123 0l0.000976562 1151h151v-143c28 56 66 98 114 126s106.333 42 175 42c101.333 0 173.5 -25.667 216.5 -77s64.5 -139.666 64.5 -264.999v-834h-162v846c0 62.667 -13.333 109.334 -40 140.001s-67.334 46 -122.001 46c-72 0 -129.167 -22.667 -171.5 -68
s-63.5 -106.666 -63.5 -183.999v-780h-162z" />
    <glyph glyph-name="o" unicode="o" horiz-adv-x="989" 
d="M90 575c0 206.667 33.165 359.835 99.498 459.502s167.833 149.5 304.5 149.5c138.667 0 240.834 -49.333 306.501 -148s98.5 -252.334 98.5 -461.001s-32.667 -361.834 -98 -459.501s-167.666 -146.5 -306.999 -146.5c-140 0 -242.333 48.5 -307 145.5
s-97 250.5 -97 460.5zM261.998 575.001c0 -172 17.667 -293.167 53 -363.5s95 -105.5 179 -105.5c82.667 0 141.834 35.833 177.501 107.5s53.5 192.167 53.5 361.5c0 170.667 -17.833 291.167 -53.5 361.5s-94.834 105.5 -177.501 105.5
c-83.333 0 -142.833 -34.833 -178.5 -104.5s-53.5 -190.5 -53.5 -362.5z" />
    <glyph glyph-name="p" unicode="p" horiz-adv-x="975" 
d="M279 580c0 -157.333 18.667 -273.833 56 -349.5s95 -113.5 173 -113.5c71.333 0 123.333 36.5 156 109.5s49 191.5 49 355.5c0 159.333 -16.667 274.5 -50 345.5s-87 106.5 -161 106.5c-80 0 -137.167 -34.833 -171.5 -104.5s-51.5 -186.167 -51.5 -349.5zM123 -389
l-0.000976562 1540h156v-145c12 50 40.833 91.167 86.5 123.5s97.834 48.5 156.501 48.5c121.333 0 212.5 -50.167 273.5 -150.5s91.5 -250.166 91.5 -449.499c0 -207.333 -28.333 -359.666 -85 -456.999s-145 -146 -265 -146c-54.667 0 -103.5 12.833 -146.5 38.5
s-76.833 62.167 -101.5 109.5v-512h-166z" />
    <glyph glyph-name="q" unicode="q" horiz-adv-x="975" 
d="M696 580c0 163.333 -17.333 279.833 -52 349.5s-91.667 104.5 -171 104.5c-74 0 -127.667 -35.5 -161 -106.5s-50 -186.167 -50 -345.5c0 -164 16.167 -282.5 48.5 -355.5s84.5 -109.5 156.5 -109.5c77.333 0 134.833 37.833 172.5 113.5s56.5 192.167 56.5 349.5z
M852 -389l-166 0.00195312v512c-24.667 -47.333 -58.5 -83.833 -101.5 -109.5s-91.833 -38.5 -146.5 -38.5c-120 0 -208.333 48.667 -265 146s-85 249.666 -85 456.999c0 199.333 30.5 349.166 91.5 449.499s152.167 150.5 273.5 150.5c58 0 110 -16.167 156 -48.5
s75 -73.5 87 -123.5v145h156v-1540z" />
    <glyph glyph-name="r" unicode="r" horiz-adv-x="596" 
d="M123 0l-0.000976562 1151h149v-188c23.333 67.333 58.5 120 105.5 158s100.833 57 161.5 57c18 0 31.833 -0.333008 41.5 -1s18.834 -1.66699 27.501 -3v-172c-8.66699 4.66699 -18.167 8.16699 -28.5 10.5s-21.833 3.5 -34.5 3.5c-82.667 0 -147 -27.333 -193 -82
s-69 -131 -69 -229v-705h-160z" />
    <glyph glyph-name="s" unicode="s" horiz-adv-x="909" 
d="M92 346l160.003 0.00390625c0 -1.33301 -0.333008 -3.33301 -1 -6c-2 -14.667 -3 -25.667 -3 -33c0 -62.667 17.833 -110.334 53.5 -143.001s87.5 -49 155.5 -49c62 0 110.833 16.667 146.5 50s53.5 78.666 53.5 135.999c0 90.667 -69.667 160 -209 208l-3 1
c-140 48.667 -230.667 97 -272 145s-62 117.667 -62 209c0 100.667 29.5 179.167 88.5 235.5s141.167 84.5 246.5 84.5c112 0 196.333 -27 253 -81s85 -133.667 85 -239v-16h-153c-3.33301 69.333 -19 119.833 -47 151.5s-71.667 47.5 -131 47.5
c-62.667 0 -109.834 -14.833 -141.501 -44.5s-47.5 -73.834 -47.5 -132.501c0 -26 4.16699 -49.333 12.5 -70s20.5 -37.334 36.5 -50.001c29.333 -25.333 87.666 -52 174.999 -80c46.667 -14.667 82.667 -27 108 -37c79.333 -30.667 136 -69.5 170 -116.5
s51 -109.167 51 -186.5c0 -115.333 -33.167 -204.333 -99.5 -267s-160.833 -94 -283.5 -94c-112.667 0 -197.834 29.833 -255.501 89.5s-86.5 147.5 -86.5 263.5v24z" />
    <glyph glyph-name="t" unicode="t" horiz-adv-x="504" 
d="M307 238c0 -48 8.66602 -79.498 25.999 -94.498s58.666 -22.5 123.999 -22.5c8.66699 0 15.834 0.166992 21.501 0.5s10.5 0.833008 14.5 1.5l1 -141c-10 -0.666992 -23.333 -1.33398 -40 -2.00098c-41.333 -2 -67.666 -3 -78.999 -3c-76 0 -132.5 15.167 -169.5 45.5
s-55.5 76.166 -55.5 137.499v858h-160v133h160v307h157v-307h187v-133h-187v-780z" />
    <glyph glyph-name="u" unicode="u" horiz-adv-x="963" 
d="M682 0l0.000976562 150.001c-22.667 -58 -58.834 -102.667 -108.501 -134s-109.167 -47 -178.5 -47c-96 0 -166 23.667 -210 71s-66 122.666 -66 225.999v885h168v-889c0 -47.333 11.833 -84 35.5 -110s56.834 -39 99.501 -39c77.333 0 137.666 24 180.999 72
s65 115.333 65 202v764h163v-1151h-149z" />
    <glyph glyph-name="v" unicode="v" horiz-adv-x="872" 
d="M344 0l-311 1151h176l225 -903l236 903h168l-320 -1151h-174z" />
    <glyph glyph-name="w" unicode="w" horiz-adv-x="1364" 
d="M338 0l-295 1151h166l213 -920l178 920h164l199 -922l198 922h160l-279 -1151h-159l-201 893l-176 -893h-168z" />
    <glyph glyph-name="x" unicode="x" horiz-adv-x="825" 
d="M-18 0l327 596l-305 555h184l222 -414l225 414h180l-307 -543l334 -608h-189l-247 467l-242 -467h-182z" />
    <glyph glyph-name="y" unicode="y" horiz-adv-x="909" 
d="M78 -369l-0.00292969 146c16.667 -7.33301 33.334 -12.666 50.001 -15.999s33.334 -5 50.001 -5c47.333 0 84.833 16 112.5 48s55.167 94 82.5 186l-338 1161h174l246 -928l254 928h165l-354 -1202c-37.333 -130.667 -80.333 -219.334 -129 -266.001
s-117.667 -70 -207 -70c-13.333 0 -29.166 1.5 -47.499 4.5s-37.833 7.5 -58.5 13.5z" />
    <glyph glyph-name="z" unicode="z" horiz-adv-x="793" 
d="M47 0v147l494 859h-473v145h665v-129l-504 -868h514v-154h-696z" />
    <glyph glyph-name="braceleft" unicode="{" 
d="M866 1327l-40.998 -0.00292969c-80 0 -133.667 -14.833 -161 -44.5s-41 -91.167 -41 -184.5v-242c0 -106.667 -14.833 -182.667 -44.5 -228s-81.834 -78 -156.501 -98c75.333 -18.667 127.666 -50.667 156.999 -96s44 -121.666 44 -228.999v-242
c0 -94 13.833 -155.667 41.5 -185s81.834 -44 162.501 -44h39v-148h-43c-72 0 -128.333 3.83301 -169 11.5s-75 20.167 -103 37.5c-36.667 22.667 -62.5 55 -77.5 97s-22.5 112.333 -22.5 211v245c0 99.333 -18.167 169.333 -54.5 210s-98.166 61 -185.499 61
c-4.66699 0 -11.834 -0.333008 -21.501 -1s-16.834 -1 -21.501 -1v149c5.33301 0 13 -0.333008 23 -1s17.333 -1 22 -1c86.667 0 148 20.167 184 60.5s54 109.5 54 207.5v246c0 98.667 7.5 168.834 22.5 210.501s40.833 73.834 77.5 96.501c30 18.667 66.167 32 108.5 40
s98.833 12 169.5 12h37v-150z" />
    <glyph glyph-name="bar" unicode="|" 
d="M588 1565v-2048h-150v2048h150z" />
    <glyph glyph-name="braceright" unicode="}" 
d="M575 1118l-0.000976562 -245.997c0 -98 18 -167.167 54 -207.5s97.333 -60.5 184 -60.5c4.66699 0 12 0.333008 22 1s17.667 1 23 1v-149c-4.66699 0 -12 0.333008 -22 1s-17 1 -21 1c-88 0 -150 -20.167 -186 -60.5s-54 -110.5 -54 -210.5v-245
c0 -98.667 -7.5 -169 -22.5 -211s-40.833 -74.333 -77.5 -97c-28 -17.333 -62.333 -29.833 -103 -37.5s-97 -11.5 -169 -11.5h-43v148h39c80 0 134 15 162 45s42 92 42 186v240c0 106.667 14.833 182.667 44.5 228s81.834 77.666 156.501 96.999
c-74.667 20 -126.834 52.667 -156.501 98s-44.5 121.333 -44.5 228v242c0 93.333 -14 154.833 -42 184.5s-82 44.5 -162 44.5h-39v150h37c71.333 0 128.333 -4.16699 171 -12.5s78.334 -21.5 107.001 -39.5c36.667 -22.667 62.5 -54.834 77.5 -96.501
s22.5 -111.834 22.5 -210.501z" />
    <glyph glyph-name="asciitilde" unicode="~" horiz-adv-x="1706" 
d="M1530 614c-69.333 -48 -135.669 -83.501 -199.002 -106.501s-126.666 -34.5 -189.999 -34.5c-62 0 -147.333 19.333 -256 58c-14.667 5.33301 -26 9.33301 -34 12l-15 5c-117.333 40 -208.333 60 -273 60c-56 0 -114.333 -12.333 -175 -37s-130.667 -64.667 -210 -120
v155c70.667 48 138 84 202 108s125.667 36 185 36c41.333 0 83.833 -4.5 127.5 -13.5s98.167 -25.167 163.5 -48.5c10.667 -3.33301 26.334 -9 47.001 -17c106 -38 186 -57 240 -57c58.667 0 118.5 12.333 179.5 37s130.167 64.334 207.5 119.001v-156z" />
    <glyph glyph-name="Euro" horiz-adv-x="1020" 
d="M739 700l-26 -97.999h-358c4 -182 24.5 -308 61.5 -378s98.167 -105 183.5 -105c68 0 119.333 28 154 84s53.667 145.333 57 268h168c-10 -176 -46.5 -303.667 -109.5 -383s-158.167 -119 -285.5 -119c-135.333 0 -234.833 49 -298.5 147s-100.167 260 -109.5 486h-143
l24 98h117c0 46.667 0.166992 81.667 0.5 105s0.833008 45 1.5 65h-135l25 99h114c12 211.333 50.333 360.666 115 447.999s167.667 131 309 131c116.667 0 204.667 -33.167 264 -99.5s93 -171.5 101 -315.5h-166c-6.66699 89.333 -26.5 156 -59.5 200s-80.167 66 -141.5 66
c-83.333 0 -143.5 -31.333 -180.5 -94s-58.833 -174.667 -65.5 -336h449l-25 -99h-428c0 -9.33301 -0.333008 -23.5 -1 -42.5s-1 -32.833 -1 -41.5c0 -9.33301 0.333008 -23.5 1 -42.5s1 -33.5 1 -43.5h387z" />
    <glyph glyph-name="Euro" unicode="&#x20ac;" horiz-adv-x="1020" 
d="M739 700l-26 -97.999h-358c4 -182 24.5 -308 61.5 -378s98.167 -105 183.5 -105c68 0 119.333 28 154 84s53.667 145.333 57 268h168c-10 -176 -46.5 -303.667 -109.5 -383s-158.167 -119 -285.5 -119c-135.333 0 -234.833 49 -298.5 147s-100.167 260 -109.5 486h-143
l24 98h117c0 46.667 0.166992 81.667 0.5 105s0.833008 45 1.5 65h-135l25 99h114c12 211.333 50.333 360.666 115 447.999s167.667 131 309 131c116.667 0 204.667 -33.167 264 -99.5s93 -171.5 101 -315.5h-166c-6.66699 89.333 -26.5 156 -59.5 200s-80.167 66 -141.5 66
c-83.333 0 -143.5 -31.333 -180.5 -94s-58.833 -174.667 -65.5 -336h449l-25 -99h-428c0 -9.33301 -0.333008 -23.5 -1 -42.5s-1 -32.833 -1 -41.5c0 -9.33301 0.333008 -23.5 1 -42.5s1 -33.5 1 -43.5h387z" />
    <glyph glyph-name="nonbreakingspace" unicode="&#xa0;" horiz-adv-x="1020" 
 />
    <glyph glyph-name="exclamdown" unicode="&#xa1;" horiz-adv-x="530" 
d="M180 1540h170v-209h-170v209zM215 1161h100l43 -723v-438h-186v438z" />
    <glyph glyph-name="cent" unicode="&#xa2;" horiz-adv-x="1020" 
d="M463 -324v324.002c-103.333 8 -181.333 61 -234 159s-79 239.667 -79 425c0 195.333 25.167 341.666 75.5 438.999s129.5 153 237.5 167v287h131v-283c94 -14.667 165 -52.5 213 -113.5s72 -144.833 72 -251.5v-12h-160c-5.33301 81.333 -23.166 142 -53.499 182
s-73.833 60 -130.5 60c-78.667 0 -133.834 -35.667 -165.501 -107s-47.5 -201 -47.5 -389c0 -148 17.167 -256.333 51.5 -325s88.833 -103 163.5 -103c56.667 0 102.5 24.167 137.5 72.5s52.5 112.166 52.5 191.499v29h159c-1.33301 -127.333 -27.333 -227.833 -78 -301.5
s-122 -115.167 -214 -124.5v-326h-131z" />
    <glyph glyph-name="sterling" unicode="&#xa3;" horiz-adv-x="1020" 
d="M147 -37l-87.998 133.004c75.333 48 134.166 108.167 176.499 180.5s63.5 148.166 63.5 227.499c0 34 -3.66699 67 -11 99s-18.666 63.667 -33.999 95h-195v93h150c-34.667 47.333 -60.834 98.5 -78.501 153.5s-26.5 112.167 -26.5 171.5c0 131.333 39 236.5 117 315.5
s181 118.5 309 118.5c134 0 236.833 -37.833 308.5 -113.5s107.5 -183.834 107.5 -324.501v-33h-164v19c0 96.667 -22 171.334 -66 224.001s-106.667 79 -188 79c-76.667 0 -136.334 -24.333 -179.001 -73s-64 -117.334 -64 -206.001c0 -59.333 9 -117.166 27 -173.499
s44.333 -108.833 79 -157.5h326v-93h-287c13.333 -42.667 22.5 -75.334 27.5 -98.001s7.5 -41.667 7.5 -57c0 -68.667 -20.333 -138.834 -61 -210.501s-99.667 -140.834 -177 -207.501c40.667 23.333 80.5 40.833 119.5 52.5s77.167 17.5 114.5 17.5
c39.333 0 92.333 -8.66699 159 -26s115.334 -26 146.001 -26c31.333 0 60.166 4.83301 86.499 14.5s53.5 25.5 81.5 47.5l55 -139c-36 -29.333 -75.5 -51.833 -118.5 -67.5s-86.167 -23.5 -129.5 -23.5c-38 0 -96.167 13 -174.5 39s-140.833 39 -187.5 39
c-42.667 0 -83.5 -7.5 -122.5 -22.5s-75.5 -37.5 -109.5 -67.5z" />
    <glyph glyph-name="currency" unicode="&#xa4;" horiz-adv-x="1020" 
d="M739 700l-26 -97.999h-358c4 -182 24.5 -308 61.5 -378s98.167 -105 183.5 -105c68 0 119.333 28 154 84s53.667 145.333 57 268h168c-10 -176 -46.5 -303.667 -109.5 -383s-158.167 -119 -285.5 -119c-135.333 0 -234.833 49 -298.5 147s-100.167 260 -109.5 486h-143
l24 98h117c0 46.667 0.166992 81.667 0.5 105s0.833008 45 1.5 65h-135l25 99h114c12 211.333 50.333 360.666 115 447.999s167.667 131 309 131c116.667 0 204.667 -33.167 264 -99.5s93 -171.5 101 -315.5h-166c-6.66699 89.333 -26.5 156 -59.5 200s-80.167 66 -141.5 66
c-83.333 0 -143.5 -31.333 -180.5 -94s-58.833 -174.667 -65.5 -336h449l-25 -99h-428c0 -9.33301 -0.333008 -23.5 -1 -42.5s-1 -32.833 -1 -41.5c0 -9.33301 0.333008 -23.5 1 -42.5s1 -33.5 1 -43.5h387z" />
    <glyph glyph-name="yen" unicode="&#xa5;" horiz-adv-x="1020" 
d="M424 0v641h-397v98h346l-84 170h-262v101h209l-259 512h201l336 -725l352 725h185l-263 -512h209v-101h-262l-86 -170h348v-98h-399v-641h-174z" />
    <glyph glyph-name="brokenbar" unicode="&#xa6;" 
d="M588 408v-758h-150v758h150zM588 1432v-758h-150v758h150z" />
    <glyph glyph-name="section" unicode="&#xa7;" 
d="M643 418c37.333 22.667 64.834 49.834 82.501 81.501s26.5 69.167 26.5 112.5c0 85.333 -88.667 182.666 -266 291.999c-46 28 -81.667 50.333 -107 67c-36.667 -22 -64 -48.167 -82 -78.5s-27 -66.5 -27 -108.5c0 -38 7.5 -72 22.5 -102s37.5 -56 67.5 -78
c11.333 -8 48.666 -32.5 111.999 -73.5zM172.001 145l159.998 -0.00683594v-24c0 -64 12.833 -110 38.5 -138s68.167 -42 127.5 -42c55.333 0 96.833 13.833 124.5 41.5s41.5 68.834 41.5 123.501c0 78.667 -62.667 153.667 -188 225c-44.667 25.333 -79.667 46 -105 62
c-100 62.667 -166 118.334 -198 167.001s-48 108.334 -48 179.001c0 73.333 13.667 134.333 41 183s69 86.667 125 114c-33.333 28.667 -57.666 60.667 -72.999 96s-23 77 -23 125c0 104.667 27.333 184.167 82 238.5s134.334 81.5 239.001 81.5
c100.667 0 177 -26.667 229 -80s78 -131 78 -233v-29h-157v10c0 66.667 -11.833 114.834 -35.5 144.501s-61.834 44.5 -114.501 44.5c-54 0 -94.167 -13.5 -120.5 -40.5s-39.5 -68.167 -39.5 -123.5c0 -71.333 59.667 -138.666 179 -201.999
c44.667 -24 79.334 -43.333 104.001 -58c105.333 -63.333 175 -120.166 209 -170.499s51 -113.833 51 -190.5c0 -73.333 -13 -133.166 -39 -179.499s-69 -86.833 -129 -121.5c32.667 -24.667 57.167 -56 73.5 -94s24.5 -81.667 24.5 -131c0 -105.333 -28 -186 -84 -242
s-136.333 -84 -241 -84c-112 0 -195.667 25.333 -251 76s-83 127 -83 229c0 12 0.166992 21 0.5 27s0.833008 11.333 1.5 16z" />
    <glyph glyph-name="dieresis" unicode="&#xa8;" 
d="M598 1311v170h156v-170h-156zM270 1311v170h156v-170h-156z" />
    <glyph glyph-name="copyright" unicode="&#xa9;" horiz-adv-x="1706" 
d="M1053 907c-8.66699 51.333 -30.667 90.833 -66 118.5s-81.666 41.5 -138.999 41.5c-70 0 -125 -30.167 -165 -90.5s-60 -143.5 -60 -249.5c0 -104.667 20.667 -186.167 62 -244.5s99 -87.5 173 -87.5c54.667 0 100.167 15.667 136.5 47s59.166 74.333 68.499 129h145
c-6 -86.667 -41.833 -157 -107.5 -211s-148.5 -81 -248.5 -81c-121.333 0 -216.5 40 -285.5 120s-103.5 191.333 -103.5 334c0 133.333 36.333 240.833 109 322.5s168 122.5 286 122.5c94.667 0 173.5 -25 236.5 -75s98.167 -115.333 105.5 -196h-147zM1493 727
c0 86.667 -15.833 168.834 -47.5 246.501s-77.167 146.5 -136.5 206.5c-62 61.333 -131.667 108 -209 140s-159.333 48 -246 48c-86 0 -167.167 -15.667 -243.5 -47s-144.5 -77 -204.5 -137c-62 -62 -109.667 -132.5 -143 -211.5s-50 -160.833 -50 -245.5
c0 -84 16.333 -164.667 49 -242s79.667 -147 141 -209c61.333 -60.667 130.5 -107.167 207.5 -139.5s158.167 -48.5 243.5 -48.5c83.333 0 164 16.333 242 49s149 80 213 142c60 58.667 105.667 126.167 137 202.5s47 158.166 47 245.499zM852 1464
c101.333 0 196.499 -18.166 285.499 -54.499s168.5 -89.833 238.5 -160.5c69.333 -68.667 122.5 -148.167 159.5 -238.5s55.5 -184.833 55.5 -283.5c0 -99.333 -18.167 -193.166 -54.5 -281.499s-89.166 -166.5 -158.499 -234.5
c-73.333 -71.333 -155.166 -126 -245.499 -164s-183.833 -57 -280.5 -57s-189.5 18.667 -278.5 56s-168.833 91.666 -239.5 162.999c-70.667 70 -124.5 149.5 -161.5 238.5s-55.5 182.167 -55.5 279.5c0 98 18.667 191.833 56 281.5s91.666 170.5 162.999 242.5
c69.333 69.333 148 122.166 236 158.499s181.333 54.5 280 54.5z" />
    <glyph glyph-name="ordfeminine" unicode="&#xaa;" horiz-adv-x="686" 
d="M463 1169c-19.333 -18.667 -61.999 -39.002 -127.999 -61.002l-11 -4c-57.333 -19.333 -94.333 -40.166 -111 -62.499s-25 -56.166 -25 -101.499c0 -39.333 9.66699 -70 29 -92s46.666 -33 81.999 -33c50 0 89.833 17.5 119.5 52.5s44.5 82.5 44.5 142.5v159z
M653.001 732.998c-13.333 -2 -25.999 -3.50195 -37.999 -4.50195s-23 -1.5 -33 -1.5c-34.667 0 -61.5 10 -80.5 30s-29.167 48.667 -30.5 86c-18 -40.667 -44.667 -72.167 -80 -94.5s-77 -33.5 -125 -33.5c-62.667 0 -111.334 19.5 -146.001 58.5s-52 93.833 -52 164.5
c0 70 16 123.333 48 160s101.333 71.334 208 104.001l1 1c89.333 28 134 60.333 134 97v74c0 32.667 -10.167 56.5 -30.5 71.5s-52.5 22.5 -96.5 22.5s-76.167 -10.167 -96.5 -30.5s-30.5 -52.5 -30.5 -96.5v-14h-114c1.33301 83.333 22.333 143.833 63 181.5
s104.667 56.5 192 56.5c81.333 0 141 -17.5 179 -52.5s57 -89.833 57 -164.5v-471c0 -21.333 4 -36.666 12 -45.999s21 -14 39 -14c2 0 5.16699 0.333008 9.5 1s7.83301 1 10.5 1v-86z" />
    <glyph glyph-name="guillemotleft" unicode="&#xab;" horiz-adv-x="987" 
d="M856 186l-305 320v145l305 314v-187l-197 -200l197 -205v-187zM434 186l-305 320v145l305 314v-187l-196 -200l196 -205v-187z" />
    <glyph glyph-name="logicalnot" unicode="&#xac;" horiz-adv-x="1706" 
d="M1452 860v-502h-137v363h-1061v139h1198z" />
    <glyph glyph-name="sfthyphen" unicode="&#xad;" horiz-adv-x="676" 
d="M90 485v181h494v-181h-494z" />
    <glyph glyph-name="registered" unicode="&#xae;" horiz-adv-x="1706" 
d="M844 1057l-129 -0.000976562v-277h133c75.333 0 129.333 10.5 162 31.5s49 54.833 49 101.5c0 50.667 -17 87.334 -51 110.001s-88.667 34 -164 34zM872 1159c116 0 203.167 -19.168 261.5 -57.501s87.5 -95.5 87.5 -171.5c0 -59.333 -16.667 -108.666 -50 -147.999
s-80.333 -65 -141 -77l187 -381h-177l-170 356h-155v-356h-158v835h315zM1493 720.998c0 89.333 -15.5 173 -46.5 251s-76.167 146.667 -135.5 206c-61.333 62 -130.833 109.167 -208.5 141.5s-160.5 48.5 -248.5 48.5c-86.667 0 -168.334 -15.667 -245.001 -47
s-143.667 -76.333 -201 -135c-62.667 -63.333 -110.834 -134.666 -144.501 -213.999s-50.5 -161 -50.5 -245c0 -83.333 16.167 -163.5 48.5 -240.5s78.833 -146.167 139.5 -207.5c60 -61.333 128.833 -108.5 206.5 -141.5s157.834 -49.5 240.501 -49.5
c86.667 0 168.834 16 246.501 48s148.5 78.667 212.5 140c60 58.667 106 126.167 138 202.5s48 157.166 48 242.499zM852 1464c100.667 0 195.999 -18.6689 285.999 -56.002s170 -91.666 240 -162.999c68.667 -69.333 121.334 -148.666 158.001 -237.999
s55 -182.666 55 -279.999c0 -100.667 -18.333 -195.167 -55 -283.5s-90 -166.5 -160 -234.5c-72.667 -70.667 -154.167 -124.834 -244.5 -162.501s-183.5 -56.5 -279.5 -56.5c-98 0 -191.5 18.833 -280.5 56.5s-168.833 92.5 -239.5 164.5
c-70 70.667 -123.333 150.167 -160 238.5s-55 180.833 -55 277.5c0 97.333 19.167 191.5 57.5 282.5s93.5 172.833 165.5 245.5c67.333 68.667 144.5 120.667 231.5 156s180.5 53 280.5 53z" />
    <glyph glyph-name="macron" unicode="&#xaf;" 
d="M287 1331v133h450v-133h-450z" />
    <glyph glyph-name="degree" unicode="&#xb0;" horiz-adv-x="674" 
d="M530 1169c0 54 -18.5 99.667 -55.5 137s-82.5 56 -136.5 56s-100 -18.667 -138 -56s-57 -83 -57 -137s19 -100.167 57 -138.5s84 -57.5 138 -57.5s99.5 19.167 136.5 57.5s55.5 84.5 55.5 138.5zM338 1456c78.667 0 146.167 -28.167 202.5 -84.5s84.5 -124.5 84.5 -204.5
c0 -79.333 -28 -146.833 -84 -202.5s-124.333 -83.5 -205 -83.5s-148.667 27.667 -204 83s-83 123 -83 203s28.167 148.167 84.5 204.5s124.5 84.5 204.5 84.5z" />
    <glyph glyph-name="plusminus" unicode="&#xb1;" horiz-adv-x="1706" 
d="M1452 170v-141h-1198v141h1198zM924 1192v-340h528v-139h-528v-340h-142v340h-528v139h528v340h142z" />
    <glyph glyph-name="twosuperior" unicode="&#xb2;" horiz-adv-x="674" 
d="M66 606v35c0 61.333 14.333 118.5 43 171.5s73 103.833 133 152.5l49 39c68.667 56 114.334 96 137.001 120c18.667 18.667 32.167 40.334 40.5 65.001s12.5 55 12.5 91c0 53.333 -12.833 94.333 -38.5 123s-62.5 43 -110.5 43c-49.333 0 -86.333 -15.833 -111 -47.5
s-37 -79.5 -37 -143.5v-30h-108c0 3.33301 -0.333008 8.66602 -1 15.999s-1 12.666 -1 15.999c0 90 22.833 159.333 68.5 208s110.167 73 193.5 73c82.667 0 147 -22.167 193 -66.5s69 -106.166 69 -185.499c0 -40.667 -4.33301 -76.167 -13 -106.5
s-22.667 -58.833 -42 -85.5s-61 -63.667 -125 -111l-47 -35c-70.667 -53.333 -119.834 -98.5 -147.501 -135.5s-42.167 -74.167 -43.5 -111.5l426 -1v-94h-540z" />
    <glyph glyph-name="threesuperior" unicode="&#xb3;" horiz-adv-x="674" 
d="M53 881l113.001 0.000976562v-15c0 -63.333 12.833 -110.5 38.5 -141.5s64.834 -46.5 117.501 -46.5c55.333 0 97.5 15.833 126.5 47.5s43.5 78.5 43.5 140.5c0 61.333 -16.667 106.833 -50 136.5s-84.333 44.5 -153 44.5c-10 0 -17.167 -0.166992 -21.5 -0.5
s-8.83301 -0.833008 -13.5 -1.5v85h22c65.333 0 112.833 13 142.5 39s44.5 67 44.5 123c0 48.667 -13 86.5 -39 113.5s-62.333 40.5 -109 40.5c-44.667 0 -78.334 -14.167 -101.001 -42.5s-34 -70.833 -34 -127.5v-14h-108v12c0 81.333 22 145.333 66 192s104.333 70 181 70
c78.667 0 141 -20.833 187 -62.5s69 -97.834 69 -168.501c0 -56 -12.833 -102.667 -38.5 -140s-60.5 -60.333 -104.5 -69c59.333 -9.33301 103.166 -32.5 131.499 -69.5s42.5 -89.167 42.5 -156.5c0 -90 -24.667 -159.5 -74 -208.5s-119.333 -73.5 -210 -73.5
c-87.333 0 -154 24.333 -200 73s-69 119 -69 211v9z" />
    <glyph glyph-name="acute" unicode="&#xb4;" 
d="M391 1274l170 272h178l-247 -272h-101z" />
    <glyph glyph-name="mu" unicode="&#xb5;" horiz-adv-x="1151" 
d="M385 1071l-128.999 -599.999c-4.66699 -21.333 -8.16699 -42.833 -10.5 -64.5s-3.5 -44.5 -3.5 -68.5c0 -66 17.333 -117 52 -153s84 -54 148 -54c88 0 157.5 30.833 208.5 92.5s92.167 165.5 123.5 311.5l115 536h178l-156 -732c-0.666992 -4 -2 -10.667 -4 -20
c-12 -58 -18 -95.333 -18 -112c0 -24.667 5.5 -42.167 16.5 -52.5s29.5 -15.5 55.5 -15.5c8 0 14.167 0.166992 18.5 0.5s8.83301 0.833008 13.5 1.5l-31 -143c-16 -3.33301 -32.667 -5.83301 -50 -7.5s-36.666 -2.5 -57.999 -2.5c-42 0 -74.333 9.66699 -97 29
s-40 52.666 -52 99.999c-30 -44 -67.5 -76.833 -112.5 -98.5s-97.833 -32.5 -158.5 -32.5c-54.667 0 -102.334 9.16699 -143.001 27.5s-78.334 47.833 -113.001 88.5l-110 -530h-181l318 1499h180z" />
    <glyph glyph-name="paragraph" unicode="&#xb6;" 
d="M958 1393h-120.002v-1393h-111v1393h-176v-1393h-113v782c-113.333 5.33301 -203.666 39.5 -270.999 102.5s-101 144.833 -101 245.5c0 104.667 35.833 189 107.5 253s166.834 96 285.501 96h499v-86z" />
    <glyph glyph-name="periodcentered" unicode="&#xb7;" horiz-adv-x="512" 
d="M125 762c0 36.667 12.332 67.334 36.999 92.001s55.334 37 92.001 37c37.333 0 68.5 -12.333 93.5 -37s37.5 -55.334 37.5 -92.001s-12.833 -67.667 -38.5 -93s-56.5 -38 -92.5 -38s-66.5 12.667 -91.5 38s-37.5 56.333 -37.5 93z" />
    <glyph glyph-name="cedilla" unicode="&#xb8;" 
d="M330 -342l15.998 -2.99805c84.667 -14.667 138.667 -22 162 -22c36 0 63.333 7.16699 82 21.5s28 35.166 28 62.499c0 28 -9.83301 49.667 -29.5 65s-47.167 23 -82.5 23c-4.66699 0 -9.33398 -0.166992 -14.001 -0.5s-12.334 -1.16602 -23.001 -2.49902v198h76v-102h6
c64.667 0 115.334 -15.5 152.001 -46.5s55 -73.5 55 -127.5c0 -64.667 -20.667 -113.334 -62 -146.001s-102.666 -49 -183.999 -49c-25.333 0 -53.166 2.16699 -83.499 6.5s-63.166 11.166 -98.499 20.499v102z" />
    <glyph glyph-name="onesuperior" unicode="&#xb9;" horiz-adv-x="674" 
d="M317 606l0.000976562 680h-215v78h13c72.667 0 127.167 14 163.5 42s56.166 71.333 59.499 130h90v-930h-111z" />
    <glyph glyph-name="ordmasculine" unicode="&#xba;" horiz-adv-x="741" 
d="M68 1139c0 144 24.833 250.999 74.5 320.999s125.834 105 228.501 105c103.333 0 179.666 -34.667 228.999 -104s74 -176.666 74 -321.999c0 -146.667 -24.333 -254 -73 -322s-125.334 -102 -230.001 -102c-105.333 0 -182.166 33.833 -230.499 101.5
s-72.5 175.167 -72.5 322.5zM197 1139c0 -120.667 13.3311 -205.832 39.998 -255.499s71.334 -74.5 134.001 -74.5c62 0 106.5 25.167 133.5 75.5s40.5 135.166 40.5 254.499c0 117.333 -13.5 200.833 -40.5 250.5s-71.5 74.5 -133.5 74.5
c-63.333 0 -108.166 -24.333 -134.499 -73s-39.5 -132.667 -39.5 -252z" />
    <glyph glyph-name="guillemotright" unicode="&#xbb;" horiz-adv-x="987" 
d="M129 186v187l199 205l-199 200v187l305 -314v-145zM551 186v187l199 205l-199 200v187l305 -314v-145z" />
    <glyph glyph-name="onequarter" unicode="&#xbc;" horiz-adv-x="1628" 
d="M1114 303h262l13 440zM1376 0v221h-350v82l358 563h95v-563h90v-82h-90v-221h-103zM426 -31h-125l899 1581h125zM303 668v635h-207v73h13c69.333 0 121.333 13.167 156 39.5s53.667 66.5 57 120.5h86v-868h-105z" />
    <glyph glyph-name="onehalf" unicode="&#xbd;" horiz-adv-x="1628" 
d="M1049 0c-0.666992 4 -1.16699 8.33203 -1.5 12.999s-0.5 11.334 -0.5 20.001c0 56.667 13.833 109.667 41.5 159s70.5 97.333 128.5 144l61 48c58.667 46 97.667 79 117 99c16.667 18 29 38.833 37 62.5s12 51.5 12 83.5c0 49.333 -12.333 87.166 -37 113.499
s-60.334 39.5 -107.001 39.5s-81.5 -14.5 -104.5 -43.5s-34.5 -73.167 -34.5 -132.5v-28h-104v30c0 84 21.5 148.333 64.5 193s104.833 67 185.5 67c78 0 139 -20.5 183 -61.5s66 -98.167 66 -171.5c0 -37.333 -4.16699 -70.5 -12.5 -99.5s-21.833 -55.833 -40.5 -80.5
c-17.333 -24 -56.666 -58.333 -117.999 -103l-45 -32c-68 -50.667 -115.167 -93.167 -141.5 -127.5s-39.833 -69.166 -40.5 -104.499h407v-88h-516zM426 -31.001h-125l899 1581h125zM303 667.999v635h-207v73h13c69.333 0 121.333 13.167 156 39.5s53.667 66.5 57 120.5h86
v-868h-105z" />
    <glyph glyph-name="threequarters" unicode="&#xbe;" horiz-adv-x="1626" 
d="M1114 303h262l13 440zM1376 0v221h-350v82l358 563h95v-563h90v-82h-90v-221h-103zM426 -31h-125l899 1581h125zM51 924l107.001 0.00195312v-13c0 -59.333 12.333 -103.833 37 -133.5s62 -44.5 112 -44.5c53.333 0 93.666 15 120.999 45s41 73.667 41 131
s-15.667 99.666 -47 126.999s-80 41 -146 41h-34v80h22c62 0 106.833 12 134.5 36s41.5 62.667 41.5 116c0 45.333 -12 80.5 -36 105.5s-58.333 37.5 -103 37.5c-42.667 0 -74.834 -13.333 -96.501 -40s-32.5 -66.667 -32.5 -120v-14h-104v14c0 76 21 135.333 63 178
s100 64 174 64c75.333 0 134.833 -19.167 178.5 -57.5s65.5 -90.833 65.5 -157.5c0 -52.667 -12.5 -96.5 -37.5 -131.5s-58.167 -56.167 -99.5 -63.5c56.667 -9.33301 98.834 -31.333 126.501 -66s41.5 -83 41.5 -145c0 -82.667 -24 -147 -72 -193s-115 -69 -201 -69
c-83.333 0 -146.833 22.667 -190.5 68s-65.5 111.666 -65.5 198.999v6z" />
    <glyph glyph-name="questiondown" unicode="&#xbf;" horiz-adv-x="1018" 
d="M651 1540v-209h-170v209h170zM643 1153c0.666992 -11.333 1.16602 -22.999 1.49902 -34.999s0.5 -26.333 0.5 -43c0 -69.333 -10 -130.5 -30 -183.5s-65 -121.167 -135 -204.5l-17 -20c-86 -102 -129 -205 -129 -309c0 -75.333 18 -135 54 -179s85 -66 147 -66
c70.667 0 124.834 26 162.501 78s56.5 127.667 56.5 227v31h166v-27c0 -148.667 -32.667 -262 -98 -340s-159.666 -117 -282.999 -117c-118.667 0 -212.5 35.5 -281.5 106.5s-103.5 167.167 -103.5 288.5c0 67.333 11.167 128.666 33.5 183.999s71.833 128 148.5 218l2 2
c99.333 116.667 149 226.667 149 330c0 8.66699 -0.666992 23 -2 43c-0.666992 6.66699 -1.33398 12 -2.00098 16h160z" />
    <glyph glyph-name="Agrave" unicode="&#xc0;" horiz-adv-x="1126" 
d="M356 600h410l-205 807zM31 0l420 1540h219l426 -1540h-174l-117 444h-488l-112 -444h-174zM684 1688h-101l-247 270h178z" />
    <glyph glyph-name="Aacute" unicode="&#xc1;" horiz-adv-x="1126" 
d="M356 600h410l-205 807zM31 0l420 1540h219l426 -1540h-174l-117 444h-488l-112 -444h-174zM442 1686l170 272h178l-247 -272h-101z" />
    <glyph glyph-name="Acircumflex" unicode="&#xc2;" horiz-adv-x="1126" 
d="M356 600h410l-205 807zM31 0l420 1540h219l426 -1540h-174l-117 444h-488l-112 -444h-174zM307 1688l172 270h168l172 -270h-98l-158 166l-158 -166h-98z" />
    <glyph glyph-name="Atilde" unicode="&#xc3;" horiz-adv-x="1126" 
d="M356 600h410l-205 807zM31 0l420 1540h219l426 -1540h-174l-117 444h-488l-112 -444h-174zM809 1930c-9.33301 -66 -28.1689 -116 -56.502 -150s-64.833 -51 -109.5 -51c-9.33301 0 -18.666 0.833008 -27.999 2.5s-19.666 4.16699 -30.999 7.5l-87 31
c-3.33301 1.33301 -7.33301 2.33301 -12 3s-12 1 -22 1c-15.333 0 -29.5 -5.83301 -42.5 -17.5s-22.833 -27.834 -29.5 -48.501h-76c14.667 64.667 36.667 113.334 66 146.001s66 49 110 49c8 0 15.167 -0.5 21.5 -1.5s12.833 -2.5 19.5 -4.5l107 -33
c0.666992 0 2 -0.333008 4 -1c10.667 -2 18.667 -3 24 -3c18 0 32.833 6 44.5 18s19.5 29.333 23.5 52h74z" />
    <glyph glyph-name="Adieresis" unicode="&#xc4;" horiz-adv-x="1126" 
d="M356 600h410l-205 807zM31 0l420 1540h219l426 -1540h-174l-117 444h-488l-112 -444h-174zM649 1723v170h156v-170h-156zM321 1723v170h156v-170h-156z" />
    <glyph glyph-name="Aring" unicode="&#xc5;" horiz-adv-x="1126" 
d="M463 1780c0 -26 10 -49.001 30 -69.001s42.667 -30 68 -30c26.667 0 49.667 9.83301 69 29.5s29 42.834 29 69.501s-9.66699 49.667 -29 69s-42.333 29 -69 29c-26 0 -48.833 -9.83301 -68.5 -29.5s-29.5 -42.5 -29.5 -68.5zM369 1780c0 53.333 18.667 98.666 56 135.999
s82.666 56 135.999 56c54 0 99.667 -18.667 137 -56s56 -82.666 56 -135.999s-18.833 -98.833 -56.5 -136.5s-83.167 -56.5 -136.5 -56.5s-98.666 18.833 -135.999 56.5s-56 83.167 -56 136.5zM356 599.999h410l-205 807zM31 -0.000976562l418 1530h223l424 -1530h-174
l-117 444h-488l-112 -444h-174z" />
    <glyph glyph-name="AE" unicode="&#xc6;" horiz-adv-x="1612" 
d="M385 600h360v780h-65zM-27 0l596 1540h940v-160h-594v-495h555v-156h-555v-567h601v-162h-771v444h-421l-166 -444h-185z" />
    <glyph glyph-name="Ccedilla" unicode="&#xc7;" horiz-adv-x="1157" 
d="M866 565l169.998 0.000976562c-2 -195.333 -42.5 -344.5 -121.5 -447.5s-192.833 -154.5 -341.5 -154.5c-158.667 0 -276.167 65.5 -352.5 196.5s-114.5 333.167 -114.5 606.5c0 285.333 37.833 491.833 113.5 619.5s197.834 191.5 366.501 191.5
c140.667 0 249.167 -40.833 325.5 -122.5s114.5 -197.834 114.5 -348.501v-19h-166c0 105.333 -24.667 188 -74 248s-116.666 90 -201.999 90c-104.667 0 -180 -50.833 -226 -152.5s-69 -270.5 -69 -506.5c0 -230.667 23.667 -394.834 71 -492.501
s125.333 -146.5 234 -146.5c87.333 0 154.5 35.833 201.5 107.5s70.5 173.834 70.5 306.501v24zM378.998 -341.999l15.998 -2.99805c84.667 -14.667 138.667 -22 162 -22c36 0 63.333 7.16699 82 21.5s28 35.166 28 62.499c0 28 -9.83301 49.667 -29.5 65
s-47.167 23 -82.5 23c-4.66699 0 -9.33398 -0.166992 -14.001 -0.5s-12.334 -1.16602 -23.001 -2.49902v198h76v-102h6c64.667 0 115.334 -15.5 152.001 -46.5s55 -73.5 55 -127.5c0 -64.667 -20.667 -113.334 -62 -146.001s-102.666 -49 -183.999 -49
c-25.333 0 -53.166 2.16699 -83.499 6.5s-63.166 11.166 -98.499 20.499v102z" />
    <glyph glyph-name="Egrave" unicode="&#xc8;" horiz-adv-x="1004" 
d="M137 0v1540h764v-160h-594v-495h555v-156h-555v-567h600v-162h-770zM656 1688h-101l-247 270h178z" />
    <glyph glyph-name="Eacute" unicode="&#xc9;" horiz-adv-x="1004" 
d="M137 0v1540h764v-160h-594v-495h555v-156h-555v-567h600v-162h-770zM414 1686l170 272h178l-247 -272h-101z" />
    <glyph glyph-name="Ecircumflex" unicode="&#xca;" horiz-adv-x="1004" 
d="M137 0v1540h764v-160h-594v-495h555v-156h-555v-567h600v-162h-770zM279 1688l172 270h168l172 -270h-98l-158 166l-158 -166h-98z" />
    <glyph glyph-name="Edieresis" unicode="&#xcb;" horiz-adv-x="1004" 
d="M137 0v1540h764v-160h-594v-495h555v-156h-555v-567h600v-162h-770zM621 1723v170h156v-170h-156zM293 1723v170h156v-170h-156z" />
    <glyph glyph-name="Igrave" unicode="&#xcc;" horiz-adv-x="451" 
d="M137 0v1540h176v-1540h-176zM346 1688h-101l-247 270h178z" />
    <glyph glyph-name="Iacute" unicode="&#xcd;" horiz-adv-x="451" 
d="M137 0v1540h176v-1540h-176zM104 1686l170 272h178l-247 -272h-101z" />
    <glyph glyph-name="Icircumflex" unicode="&#xce;" horiz-adv-x="451" 
d="M137 0v1540h176v-1540h-176zM-31 1688l172 270h168l172 -270h-98l-158 166l-158 -166h-98z" />
    <glyph glyph-name="Idieresis" unicode="&#xcf;" horiz-adv-x="451" 
d="M137 0v1540h176v-1540h-176zM311 1723v170h156v-170h-156zM-17 1723v170h156v-170h-156z" />
    <glyph glyph-name="Eth" unicode="&#xd0;" horiz-adv-x="1210" 
d="M328 147l222.998 -0.00195312c71.333 0 126.833 7.33301 166.5 22s70.834 38.334 93.501 71.001c36.667 52.667 62.834 118.334 78.501 197.001s23.5 189 23.5 331c0 248.667 -25.833 414.667 -77.5 498s-148.5 125 -290.5 125h-217v-490h305v-147h-305v-607z
M155.998 -0.00195312l-0.000976562 753.999h-156v147h156v639h436c174 0 302.5 -58.333 385.5 -175s124.5 -298 124.5 -544c0 -173.333 -14.333 -316.166 -43 -428.499s-73 -201.5 -133 -267.5c-41.333 -45.333 -88.166 -77.5 -140.499 -96.5s-129.833 -28.5 -232.5 -28.5
h-397z" />
    <glyph glyph-name="Ntilde" unicode="&#xd1;" horiz-adv-x="1188" 
d="M137 0v1540h230l534 -1321l-16 1321h166v-1540h-220l-542 1360l14 -1360h-166zM862 1930c-9.33301 -66 -28.1689 -116 -56.502 -150s-64.833 -51 -109.5 -51c-9.33301 0 -18.666 0.833008 -27.999 2.5s-19.666 4.16699 -30.999 7.5l-87 31
c-3.33301 1.33301 -7.33301 2.33301 -12 3s-12 1 -22 1c-15.333 0 -29.5 -5.83301 -42.5 -17.5s-22.833 -27.834 -29.5 -48.501h-76c14.667 64.667 36.667 113.334 66 146.001s66 49 110 49c8 0 15.167 -0.5 21.5 -1.5s12.833 -2.5 19.5 -4.5l107 -33
c0.666992 0 2 -0.333008 4 -1c10.667 -2 18.667 -3 24 -3c18 0 32.833 6 44.5 18s19.5 29.333 23.5 52h74z" />
    <glyph glyph-name="Ograve" unicode="&#xd2;" horiz-adv-x="1200" 
d="M285 770c0 -247.333 23.5 -418.333 70.5 -513s128.5 -142 244.5 -142c117.333 0 199.166 46.167 245.499 138.5s69.5 264.5 69.5 516.5c0 251.333 -23.167 423 -69.5 515s-128.166 138 -245.499 138c-116 0 -197.5 -47.167 -244.5 -141.5s-70.5 -264.833 -70.5 -511.5z
M106 770c0 286.667 38.833 492.83 116.5 618.497s203.5 188.5 377.5 188.5c175.333 0 301.5 -62.167 378.5 -186.5s115.5 -331.166 115.5 -620.499s-38.333 -496.166 -115 -620.499s-203 -186.5 -379 -186.5c-173.333 0 -299 63.333 -377 190s-117 332.334 -117 617.001z
M721 1688h-101l-247 270h178z" />
    <glyph glyph-name="Oacute" unicode="&#xd3;" horiz-adv-x="1200" 
d="M285 770c0 -247.333 23.5 -418.333 70.5 -513s128.5 -142 244.5 -142c117.333 0 199.166 46.167 245.499 138.5s69.5 264.5 69.5 516.5c0 251.333 -23.167 423 -69.5 515s-128.166 138 -245.499 138c-116 0 -197.5 -47.167 -244.5 -141.5s-70.5 -264.833 -70.5 -511.5z
M106 770c0 286.667 38.833 492.83 116.5 618.497s203.5 188.5 377.5 188.5c175.333 0 301.5 -62.167 378.5 -186.5s115.5 -331.166 115.5 -620.499s-38.333 -496.166 -115 -620.499s-203 -186.5 -379 -186.5c-173.333 0 -299 63.333 -377 190s-117 332.334 -117 617.001z
M479 1686l170 272h178l-247 -272h-101z" />
    <glyph glyph-name="Ocircumflex" unicode="&#xd4;" horiz-adv-x="1200" 
d="M285 770c0 -247.333 23.5 -418.333 70.5 -513s128.5 -142 244.5 -142c117.333 0 199.166 46.167 245.499 138.5s69.5 264.5 69.5 516.5c0 251.333 -23.167 423 -69.5 515s-128.166 138 -245.499 138c-116 0 -197.5 -47.167 -244.5 -141.5s-70.5 -264.833 -70.5 -511.5z
M106 770c0 286.667 38.833 492.83 116.5 618.497s203.5 188.5 377.5 188.5c175.333 0 301.5 -62.167 378.5 -186.5s115.5 -331.166 115.5 -620.499s-38.333 -496.166 -115 -620.499s-203 -186.5 -379 -186.5c-173.333 0 -299 63.333 -377 190s-117 332.334 -117 617.001z
M344 1688l172 270h168l172 -270h-98l-158 166l-158 -166h-98z" />
    <glyph glyph-name="Otilde" unicode="&#xd5;" horiz-adv-x="1200" 
d="M285 770c0 -247.333 23.5 -418.333 70.5 -513s128.5 -142 244.5 -142c117.333 0 199.166 46.167 245.499 138.5s69.5 264.5 69.5 516.5c0 251.333 -23.167 423 -69.5 515s-128.166 138 -245.499 138c-116 0 -197.5 -47.167 -244.5 -141.5s-70.5 -264.833 -70.5 -511.5z
M106 770c0 286.667 38.833 492.83 116.5 618.497s203.5 188.5 377.5 188.5c175.333 0 301.5 -62.167 378.5 -186.5s115.5 -331.166 115.5 -620.499s-38.333 -496.166 -115 -620.499s-203 -186.5 -379 -186.5c-173.333 0 -299 63.333 -377 190s-117 332.334 -117 617.001z
M846 1930c-9.33301 -66 -28.1689 -116 -56.502 -150s-64.833 -51 -109.5 -51c-9.33301 0 -18.666 0.833008 -27.999 2.5s-19.666 4.16699 -30.999 7.5l-87 31c-3.33301 1.33301 -7.33301 2.33301 -12 3s-12 1 -22 1c-15.333 0 -29.5 -5.83301 -42.5 -17.5
s-22.833 -27.834 -29.5 -48.501h-76c14.667 64.667 36.667 113.334 66 146.001s66 49 110 49c8 0 15.167 -0.5 21.5 -1.5s12.833 -2.5 19.5 -4.5l107 -33c0.666992 0 2 -0.333008 4 -1c10.667 -2 18.667 -3 24 -3c18 0 32.833 6 44.5 18s19.5 29.333 23.5 52h74z" />
    <glyph glyph-name="Odieresis" unicode="&#xd6;" horiz-adv-x="1200" 
d="M285 770c0 -247.333 23.5 -418.333 70.5 -513s128.5 -142 244.5 -142c117.333 0 199.166 46.167 245.499 138.5s69.5 264.5 69.5 516.5c0 251.333 -23.167 423 -69.5 515s-128.166 138 -245.499 138c-116 0 -197.5 -47.167 -244.5 -141.5s-70.5 -264.833 -70.5 -511.5z
M106 770c0 286.667 38.833 492.83 116.5 618.497s203.5 188.5 377.5 188.5c175.333 0 301.5 -62.167 378.5 -186.5s115.5 -331.166 115.5 -620.499s-38.333 -496.166 -115 -620.499s-203 -186.5 -379 -186.5c-173.333 0 -299 63.333 -377 190s-117 332.334 -117 617.001z
M686 1723v170h156v-170h-156zM358 1723v170h156v-170h-156z" />
    <glyph glyph-name="multiply" unicode="&#xd7;" horiz-adv-x="1706" 
d="M860 709l469 469l98 -99l-469 -469l469 -469l-98 -96l-469 467l-469 -467l-98 96l469 469l-469 469l98 99z" />
    <glyph glyph-name="Oslash" unicode="&#xd8;" horiz-adv-x="1200" 
d="M848 1286c-26 48 -58.667 82.832 -98 104.499s-89.333 32.5 -150 32.5c-115.333 0 -196.333 -46.833 -243 -140.5s-70 -264.5 -70 -512.5c0 -80 2.16699 -149.667 6.5 -209s10.833 -112.666 19.5 -159.999zM352 263.999c23.333 -50.667 55.167 -88.165 95.5 -112.498
s91.166 -36.5 152.499 -36.5c118.667 0 200.834 47 246.501 141s68.5 277.667 68.5 551c0 61.333 -2.16699 120.666 -6.5 177.999s-10.833 112.666 -19.5 165.999zM78.001 14.001l117 193.002c-30 63.333 -51.833 139.166 -65.5 227.499s-20.5 200.166 -20.5 335.499
c0 287.333 38.333 493.666 115 618.999s202 188 376 188c76.667 0 143 -11 199 -33s104.333 -56 145 -102l80 139l90 -57l-106 -183c29.333 -63.333 51 -141.5 65 -234.5s21 -205.167 21 -336.5c0 -289.333 -38.333 -496.166 -115 -620.499s-203 -186.5 -379 -186.5
c-75.333 0 -141 11.833 -197 35.5s-104.333 59.5 -145 107.5l-90 -151z" />
    <glyph glyph-name="Ugrave" unicode="&#xd9;" horiz-adv-x="1180" 
d="M139 1540h172.002v-1036c0 -144 20.5 -244.167 61.5 -300.5s110.833 -84.5 209.5 -84.5c100 0 173.667 31 221 93s71 159.333 71 292v1036h168v-1005c0 -130 -7.33301 -221.833 -22 -275.5s-39.334 -101.167 -74.001 -142.5c-42 -50 -93.833 -87.833 -155.5 -113.5
s-131.834 -38.5 -210.501 -38.5c-80.667 0 -153 13.833 -217 41.5s-114.667 67.167 -152 118.5c-26 34.667 -44.5 79.167 -55.5 133.5s-16.5 146.5 -16.5 276.5v1005zM711.002 1688h-101l-247 270h178z" />
    <glyph glyph-name="Uacute" unicode="&#xda;" horiz-adv-x="1180" 
d="M139 1540h172.002v-1036c0 -144 20.5 -244.167 61.5 -300.5s110.833 -84.5 209.5 -84.5c100 0 173.667 31 221 93s71 159.333 71 292v1036h168v-1005c0 -130 -7.33301 -221.833 -22 -275.5s-39.334 -101.167 -74.001 -142.5c-42 -50 -93.833 -87.833 -155.5 -113.5
s-131.834 -38.5 -210.501 -38.5c-80.667 0 -153 13.833 -217 41.5s-114.667 67.167 -152 118.5c-26 34.667 -44.5 79.167 -55.5 133.5s-16.5 146.5 -16.5 276.5v1005zM469.002 1686l170 272h178l-247 -272h-101z" />
    <glyph glyph-name="Ucircumflex" unicode="&#xdb;" horiz-adv-x="1180" 
d="M139 1540h172.002v-1036c0 -144 20.5 -244.167 61.5 -300.5s110.833 -84.5 209.5 -84.5c100 0 173.667 31 221 93s71 159.333 71 292v1036h168v-1005c0 -130 -7.33301 -221.833 -22 -275.5s-39.334 -101.167 -74.001 -142.5c-42 -50 -93.833 -87.833 -155.5 -113.5
s-131.834 -38.5 -210.501 -38.5c-80.667 0 -153 13.833 -217 41.5s-114.667 67.167 -152 118.5c-26 34.667 -44.5 79.167 -55.5 133.5s-16.5 146.5 -16.5 276.5v1005zM334.002 1688l172 270h168l172 -270h-98l-158 166l-158 -166h-98z" />
    <glyph glyph-name="Udieresis" unicode="&#xdc;" horiz-adv-x="1180" 
d="M139 1540h172.002v-1036c0 -144 20.5 -244.167 61.5 -300.5s110.833 -84.5 209.5 -84.5c100 0 173.667 31 221 93s71 159.333 71 292v1036h168v-1005c0 -130 -7.33301 -221.833 -22 -275.5s-39.334 -101.167 -74.001 -142.5c-42 -50 -93.833 -87.833 -155.5 -113.5
s-131.834 -38.5 -210.501 -38.5c-80.667 0 -153 13.833 -217 41.5s-114.667 67.167 -152 118.5c-26 34.667 -44.5 79.167 -55.5 133.5s-16.5 146.5 -16.5 276.5v1005zM676.002 1723v170h156v-170h-156zM348.002 1723v170h156v-170h-156z" />
    <glyph glyph-name="Yacute" unicode="&#xdd;" horiz-adv-x="1028" 
d="M424 0v596l-455 944h205l340 -758l356 758h187l-459 -944v-596h-174zM393 1686l170 272h178l-247 -272h-101z" />
    <glyph glyph-name="Thorn" unicode="&#xde;" horiz-adv-x="1085" 
d="M309 528h226c104 0 180.5 25 229.5 75s73.5 128.333 73.5 235c0 97.333 -24.667 168 -74 212s-129.333 66 -240 66h-215v-588zM137 0l0.000976562 1540h172v-274h223c168.667 0 291.5 -34.333 368.5 -103s115.5 -177 115.5 -325
c0 -152.667 -40.333 -268.334 -121 -347.001s-199.334 -118 -356.001 -118h-230v-373h-172z" />
    <glyph glyph-name="germandbls" unicode="&#xdf;" horiz-adv-x="985" 
d="M121 0l-0.00195312 1077c0 160 29.333 278.5 88 355.5s148.667 115.5 270 115.5c112.667 0 198.834 -31.833 258.501 -95.5s89.5 -155.834 89.5 -276.501c0 -73.333 -11.667 -134.5 -35 -183.5s-59.333 -87.5 -108 -115.5c68.667 -28.667 119.334 -77.5 152.001 -146.5
s49 -161.5 49 -277.5c0 -161.333 -26.5 -282 -79.5 -362s-133.167 -120 -240.5 -120c-28.667 0 -54.167 3.33301 -76.5 10s-42.5 17 -60.5 31v152c20 -16 40.333 -27.833 61 -35.5s42 -11.5 64 -11.5c58.667 0 100.667 25.333 126 76s38 136 38 256
c0 127.333 -17 217.5 -51 270.5s-90.667 79.5 -170 79.5c-12.667 0 -22.167 -0.166992 -28.5 -0.5s-12.5 -0.833008 -18.5 -1.5v137c4 -0.666992 8.33301 -1.16699 13 -1.5s11.667 -0.5 21 -0.5c62.667 0 109.5 18.333 140.5 55s46.5 92 46.5 166
c0 90.667 -15.667 156.667 -47 198s-81.333 62 -150 62c-66.667 0 -116.167 -22.167 -148.5 -66.5s-48.5 -112.833 -48.5 -205.5v-1141h-155z" />
    <glyph glyph-name="agrave" unicode="&#xe0;" horiz-adv-x="913" 
d="M616 621c-25.333 -28 -81.334 -57.668 -168.001 -89.001c-7.33301 -2.66699 -12.666 -4.66699 -15.999 -6c-74.667 -26 -123.334 -55.333 -146.001 -88s-34 -81 -34 -145c0 -57.333 12.667 -101.666 38 -132.999s61 -47 107 -47c66.667 0 119.834 25.333 159.501 76
s59.5 118.667 59.5 204v228zM869.999 -2.00098c-20 -3.33301 -37.498 -5.83398 -52.498 -7.50098s-28.833 -2.5 -41.5 -2.5c-45.333 0 -81 14.333 -107 43s-40 69.334 -42 122.001c-24.667 -58.667 -60.334 -103.667 -107.001 -135s-102 -47 -166 -47
c-83.333 0 -148.166 28 -194.499 84s-69.5 134.667 -69.5 236c0 99.333 21.5 175 64.5 227s135.833 102 278.5 150l3 1c117.333 39.333 176 85.333 176 138v106c0 47.333 -13.5 81.833 -40.5 103.5s-70.167 32.5 -129.5 32.5c-57.333 0 -100 -15 -128 -45s-42 -76 -42 -138
v-20h-151c2 117.333 30 203 84 257s139.333 81 256 81c109.333 0 189.166 -24.833 239.499 -74.5s75.5 -128.167 75.5 -235.5v-673c0 -30 5.33301 -51.5 16 -64.5s28 -19.5 52 -19.5c4.66699 0 12 1 22 3c1.33301 0 2.66602 0.333008 3.99902 1v-123zM594.001 1276h-101
l-247 270h178z" />
    <glyph glyph-name="aacute" unicode="&#xe1;" horiz-adv-x="913" 
d="M616 621c-25.333 -28 -81.334 -57.668 -168.001 -89.001c-7.33301 -2.66699 -12.666 -4.66699 -15.999 -6c-74.667 -26 -123.334 -55.333 -146.001 -88s-34 -81 -34 -145c0 -57.333 12.667 -101.666 38 -132.999s61 -47 107 -47c66.667 0 119.834 25.333 159.501 76
s59.5 118.667 59.5 204v228zM869.999 -2.00098c-20 -3.33301 -37.498 -5.83398 -52.498 -7.50098s-28.833 -2.5 -41.5 -2.5c-45.333 0 -81 14.333 -107 43s-40 69.334 -42 122.001c-24.667 -58.667 -60.334 -103.667 -107.001 -135s-102 -47 -166 -47
c-83.333 0 -148.166 28 -194.499 84s-69.5 134.667 -69.5 236c0 99.333 21.5 175 64.5 227s135.833 102 278.5 150l3 1c117.333 39.333 176 85.333 176 138v106c0 47.333 -13.5 81.833 -40.5 103.5s-70.167 32.5 -129.5 32.5c-57.333 0 -100 -15 -128 -45s-42 -76 -42 -138
v-20h-151c2 117.333 30 203 84 257s139.333 81 256 81c109.333 0 189.166 -24.833 239.499 -74.5s75.5 -128.167 75.5 -235.5v-673c0 -30 5.33301 -51.5 16 -64.5s28 -19.5 52 -19.5c4.66699 0 12 1 22 3c1.33301 0 2.66602 0.333008 3.99902 1v-123zM352.001 1274l170 272
h178l-247 -272h-101z" />
    <glyph glyph-name="acircumflex" unicode="&#xe2;" horiz-adv-x="913" 
d="M616 621c-25.333 -28 -81.334 -57.668 -168.001 -89.001c-7.33301 -2.66699 -12.666 -4.66699 -15.999 -6c-74.667 -26 -123.334 -55.333 -146.001 -88s-34 -81 -34 -145c0 -57.333 12.667 -101.666 38 -132.999s61 -47 107 -47c66.667 0 119.834 25.333 159.501 76
s59.5 118.667 59.5 204v228zM869.999 -2.00098c-20 -3.33301 -37.498 -5.83398 -52.498 -7.50098s-28.833 -2.5 -41.5 -2.5c-45.333 0 -81 14.333 -107 43s-40 69.334 -42 122.001c-24.667 -58.667 -60.334 -103.667 -107.001 -135s-102 -47 -166 -47
c-83.333 0 -148.166 28 -194.499 84s-69.5 134.667 -69.5 236c0 99.333 21.5 175 64.5 227s135.833 102 278.5 150l3 1c117.333 39.333 176 85.333 176 138v106c0 47.333 -13.5 81.833 -40.5 103.5s-70.167 32.5 -129.5 32.5c-57.333 0 -100 -15 -128 -45s-42 -76 -42 -138
v-20h-151c2 117.333 30 203 84 257s139.333 81 256 81c109.333 0 189.166 -24.833 239.499 -74.5s75.5 -128.167 75.5 -235.5v-673c0 -30 5.33301 -51.5 16 -64.5s28 -19.5 52 -19.5c4.66699 0 12 1 22 3c1.33301 0 2.66602 0.333008 3.99902 1v-123zM217.001 1276l172 270
h168l172 -270h-98l-158 166l-158 -166h-98z" />
    <glyph glyph-name="atilde" unicode="&#xe3;" horiz-adv-x="913" 
d="M616 621c-25.333 -28 -81.334 -57.668 -168.001 -89.001c-7.33301 -2.66699 -12.666 -4.66699 -15.999 -6c-74.667 -26 -123.334 -55.333 -146.001 -88s-34 -81 -34 -145c0 -57.333 12.667 -101.666 38 -132.999s61 -47 107 -47c66.667 0 119.834 25.333 159.501 76
s59.5 118.667 59.5 204v228zM869.999 -2.00098c-20 -3.33301 -37.498 -5.83398 -52.498 -7.50098s-28.833 -2.5 -41.5 -2.5c-45.333 0 -81 14.333 -107 43s-40 69.334 -42 122.001c-24.667 -58.667 -60.334 -103.667 -107.001 -135s-102 -47 -166 -47
c-83.333 0 -148.166 28 -194.499 84s-69.5 134.667 -69.5 236c0 99.333 21.5 175 64.5 227s135.833 102 278.5 150l3 1c117.333 39.333 176 85.333 176 138v106c0 47.333 -13.5 81.833 -40.5 103.5s-70.167 32.5 -129.5 32.5c-57.333 0 -100 -15 -128 -45s-42 -76 -42 -138
v-20h-151c2 117.333 30 203 84 257s139.333 81 256 81c109.333 0 189.166 -24.833 239.499 -74.5s75.5 -128.167 75.5 -235.5v-673c0 -30 5.33301 -51.5 16 -64.5s28 -19.5 52 -19.5c4.66699 0 12 1 22 3c1.33301 0 2.66602 0.333008 3.99902 1v-123zM719.001 1518
c-9.33301 -66 -28.1689 -116 -56.502 -150s-64.833 -51 -109.5 -51c-9.33301 0 -18.666 0.833008 -27.999 2.5s-19.666 4.16699 -30.999 7.5l-87 31c-3.33301 1.33301 -7.33301 2.33301 -12 3s-12 1 -22 1c-15.333 0 -29.5 -5.83301 -42.5 -17.5
s-22.833 -27.834 -29.5 -48.501h-76c14.667 64.667 36.667 113.334 66 146.001s66 49 110 49c8 0 15.167 -0.5 21.5 -1.5s12.833 -2.5 19.5 -4.5l107 -33c0.666992 0 2 -0.333008 4 -1c10.667 -2 18.667 -3 24 -3c18 0 32.833 6 44.5 18s19.5 29.333 23.5 52h74z" />
    <glyph glyph-name="adieresis" unicode="&#xe4;" horiz-adv-x="913" 
d="M616 621c-25.333 -28 -81.334 -57.668 -168.001 -89.001c-7.33301 -2.66699 -12.666 -4.66699 -15.999 -6c-74.667 -26 -123.334 -55.333 -146.001 -88s-34 -81 -34 -145c0 -57.333 12.667 -101.666 38 -132.999s61 -47 107 -47c66.667 0 119.834 25.333 159.501 76
s59.5 118.667 59.5 204v228zM869.999 -2.00098c-20 -3.33301 -37.498 -5.83398 -52.498 -7.50098s-28.833 -2.5 -41.5 -2.5c-45.333 0 -81 14.333 -107 43s-40 69.334 -42 122.001c-24.667 -58.667 -60.334 -103.667 -107.001 -135s-102 -47 -166 -47
c-83.333 0 -148.166 28 -194.499 84s-69.5 134.667 -69.5 236c0 99.333 21.5 175 64.5 227s135.833 102 278.5 150l3 1c117.333 39.333 176 85.333 176 138v106c0 47.333 -13.5 81.833 -40.5 103.5s-70.167 32.5 -129.5 32.5c-57.333 0 -100 -15 -128 -45s-42 -76 -42 -138
v-20h-151c2 117.333 30 203 84 257s139.333 81 256 81c109.333 0 189.166 -24.833 239.499 -74.5s75.5 -128.167 75.5 -235.5v-673c0 -30 5.33301 -51.5 16 -64.5s28 -19.5 52 -19.5c4.66699 0 12 1 22 3c1.33301 0 2.66602 0.333008 3.99902 1v-123zM559.001 1311v170h156
v-170h-156zM231.001 1311v170h156v-170h-156z" />
    <glyph glyph-name="aring" unicode="&#xe5;" horiz-adv-x="913" 
d="M362 1434c0 -26 10.168 -49.333 30.501 -70s43.166 -31 68.499 -31c26 0 48.833 10 68.5 30s29.5 43.667 29.5 71c0 26.667 -9.66699 49.667 -29 69s-42.333 29 -69 29c-26 0 -49 -9.83301 -69 -29.5s-30 -42.5 -30 -68.5zM268.001 1434
c0 52.667 18.834 97.832 56.501 135.499s83.167 56.5 136.5 56.5c54 0 99.5 -18.667 136.5 -56s55.5 -82.666 55.5 -135.999c0 -54 -18.833 -100 -56.5 -138s-82.834 -57 -135.501 -57c-53.333 0 -98.833 19 -136.5 57s-56.5 84 -56.5 138zM616.002 620.998
c-25.333 -28 -81.334 -57.668 -168.001 -89.001c-7.33301 -2.66699 -12.666 -4.66699 -15.999 -6c-74.667 -26 -123.334 -55.333 -146.001 -88s-34 -81 -34 -145c0 -57.333 12.667 -101.666 38 -132.999s61 -47 107 -47c66.667 0 119.834 25.333 159.501 76
s59.5 118.667 59.5 204v228zM870.001 -2.00293c-20 -3.33301 -37.498 -5.83398 -52.498 -7.50098s-28.833 -2.5 -41.5 -2.5c-45.333 0 -81 14.333 -107 43s-40 69.334 -42 122.001c-24.667 -58.667 -60.334 -103.667 -107.001 -135s-102 -47 -166 -47
c-83.333 0 -148.166 28 -194.499 84s-69.5 134.667 -69.5 236c0 99.333 21.5 175 64.5 227s135.833 102 278.5 150l3 1c117.333 39.333 176 85.333 176 138v106c0 47.333 -13.5 81.833 -40.5 103.5s-70.167 32.5 -129.5 32.5c-57.333 0 -100 -15 -128 -45s-42 -76 -42 -138
v-20h-151c2 117.333 30 203 84 257s139.333 81 256 81c109.333 0 189.166 -24.833 239.499 -74.5s75.5 -128.167 75.5 -235.5v-673c0 -30 5.33301 -51.5 16 -64.5s28 -19.5 52 -19.5c4.66699 0 12 1 22 3c1.33301 0 2.66602 0.333008 3.99902 1v-123z" />
    <glyph glyph-name="ae" unicode="&#xe6;" horiz-adv-x="1423" 
d="M774 700h391.001v37c0 102.667 -16.333 180.667 -49 234s-80.334 80 -143.001 80c-66.667 0 -116.5 -26.667 -149.5 -80s-49.5 -134 -49.5 -242v-29zM621.001 621c-20.667 -26.667 -75.333 -55.667 -164 -87c-9.33301 -3.33301 -16.333 -6 -21 -8
c-74 -25.333 -122.5 -54.5 -145.5 -87.5s-34.5 -81.5 -34.5 -145.5c0 -56.667 12.667 -100.5 38 -131.5s61 -46.5 107 -46.5c68.667 0 122.5 25.5 161.5 76.5s58.5 122.5 58.5 214.5v215zM674.002 170c-48.667 -68 -98.4971 -118.166 -149.497 -150.499
s-106.5 -48.5 -166.5 -48.5c-82.667 0 -147.334 28.167 -194.001 84.5s-70 134.833 -70 235.5c0 58.667 7.66699 108.5 23 149.5s39.666 77.167 72.999 108.5c36.667 34 109.667 70 219 108c33.333 11.333 58.666 20.333 75.999 27c44.667 16.667 74.667 29.667 90 39
s27 19.666 35 30.999c5.33301 6.66699 9.16602 15.834 11.499 27.501s3.5 29.167 3.5 52.5v55c0 55.333 -14.5 96.833 -43.5 124.5s-72.5 41.5 -130.5 41.5c-55.333 0 -98.333 -16 -129 -48s-46 -77 -46 -135c0 -2.66699 0.5 -7 1.5 -13s1.5 -10.333 1.5 -13h-152
c2 117.333 30 203 84 257s139.333 81 256 81c68 0 123.167 -9.66699 165.5 -29s75.833 -50 100.5 -92c28.667 40 63.334 70.167 104.001 90.5s87.334 30.5 140.001 30.5c117.333 0 205.666 -42.833 264.999 -128.5s89 -213.5 89 -383.5c0 -12 -0.166992 -24.833 -0.5 -38.5
s-1.5 -34.834 -3.5 -63.501l-557 -1c-0.666992 -12 -1.16699 -24.833 -1.5 -38.5s-0.5 -33.5 -0.5 -59.5c0 -130.667 16.667 -223.667 50 -279s88.333 -83 165 -83c60.667 0 106.5 23.667 137.5 71s46.5 117 46.5 209h158c-1.33301 -134.667 -32.5 -238 -93.5 -310
s-147.833 -108 -260.5 -108c-71.333 0 -131.833 16.667 -181.5 50s-88.167 83 -115.5 149z" />
    <glyph glyph-name="ccedilla" unicode="&#xe7;" horiz-adv-x="942" 
d="M680 405l158 0.998047c0 -139.333 -32 -247 -96 -323s-154.333 -114 -271 -114c-128 0 -222.833 50.333 -284.5 151s-92.5 255.334 -92.5 464.001c0 200.667 32 350.5 96 449.5s161 148.5 291 148.5c107.333 0 192.166 -32.833 254.499 -98.5s93.5 -155.167 93.5 -268.5
v-24h-157c-3.33301 80.667 -20.666 142 -51.999 184s-75.666 63 -132.999 63c-78.667 0 -134.834 -34.833 -168.501 -104.5s-50.5 -188.167 -50.5 -355.5c0 -169.333 17 -289.166 51 -359.499s90.667 -105.5 170 -105.5c60 0 106.333 25 139 75s50 122.333 52 217z
M285 -342.002l15.998 -2.99805c84.667 -14.667 138.667 -22 162 -22c36 0 63.333 7.16699 82 21.5s28 35.166 28 62.499c0 28 -9.83301 49.667 -29.5 65s-47.167 23 -82.5 23c-4.66699 0 -9.33398 -0.166992 -14.001 -0.5s-12.334 -1.16602 -23.001 -2.49902v198h76v-102h6
c64.667 0 115.334 -15.5 152.001 -46.5s55 -73.5 55 -127.5c0 -64.667 -20.667 -113.334 -62 -146.001s-102.666 -49 -183.999 -49c-25.333 0 -53.166 2.16699 -83.499 6.5s-63.166 11.166 -98.499 20.499v102z" />
    <glyph glyph-name="egrave" unicode="&#xe8;" horiz-adv-x="901" 
d="M256 700l391 0.000976562v31c0 106 -15.5 185.833 -46.5 239.5s-77.5 80.5 -139.5 80.5c-69.333 0 -120.833 -28.833 -154.5 -86.5s-50.5 -145.834 -50.5 -264.501zM649 389.001l158.001 -0.00195312c-1.33301 -136 -32.5 -240 -93.5 -312s-147.833 -108 -260.5 -108
c-124 0 -215.5 48.333 -274.5 145s-88.5 246.334 -88.5 449.001c0 214.667 29.5 371.834 88.5 471.501s151.833 149.5 278.5 149.5c119.333 0 208.166 -42.333 266.499 -127s87.5 -213.667 87.5 -387c0 -27.333 -0.166992 -48 -0.5 -62s-0.833008 -26.667 -1.5 -38l-553 -1
v-51c0 -144 16.667 -249 50 -315s86.333 -99 159 -99c56.667 0 101.5 24.833 134.5 74.5s49.5 117.167 49.5 202.5v8zM598.001 1276h-101l-247 270h178z" />
    <glyph glyph-name="eacute" unicode="&#xe9;" horiz-adv-x="901" 
d="M256 700l391 0.000976562v31c0 106 -15.5 185.833 -46.5 239.5s-77.5 80.5 -139.5 80.5c-69.333 0 -120.833 -28.833 -154.5 -86.5s-50.5 -145.834 -50.5 -264.501zM649 389.001l158.001 -0.00195312c-1.33301 -136 -32.5 -240 -93.5 -312s-147.833 -108 -260.5 -108
c-124 0 -215.5 48.333 -274.5 145s-88.5 246.334 -88.5 449.001c0 214.667 29.5 371.834 88.5 471.501s151.833 149.5 278.5 149.5c119.333 0 208.166 -42.333 266.499 -127s87.5 -213.667 87.5 -387c0 -27.333 -0.166992 -48 -0.5 -62s-0.833008 -26.667 -1.5 -38l-553 -1
v-51c0 -144 16.667 -249 50 -315s86.333 -99 159 -99c56.667 0 101.5 24.833 134.5 74.5s49.5 117.167 49.5 202.5v8zM356.001 1274l170 272h178l-247 -272h-101z" />
    <glyph glyph-name="ecircumflex" unicode="&#xea;" horiz-adv-x="901" 
d="M256 700l391 0.000976562v31c0 106 -15.5 185.833 -46.5 239.5s-77.5 80.5 -139.5 80.5c-69.333 0 -120.833 -28.833 -154.5 -86.5s-50.5 -145.834 -50.5 -264.501zM649 389.001l158.001 -0.00195312c-1.33301 -136 -32.5 -240 -93.5 -312s-147.833 -108 -260.5 -108
c-124 0 -215.5 48.333 -274.5 145s-88.5 246.334 -88.5 449.001c0 214.667 29.5 371.834 88.5 471.501s151.833 149.5 278.5 149.5c119.333 0 208.166 -42.333 266.499 -127s87.5 -213.667 87.5 -387c0 -27.333 -0.166992 -48 -0.5 -62s-0.833008 -26.667 -1.5 -38l-553 -1
v-51c0 -144 16.667 -249 50 -315s86.333 -99 159 -99c56.667 0 101.5 24.833 134.5 74.5s49.5 117.167 49.5 202.5v8zM221.001 1276l172 270h168l172 -270h-98l-158 166l-158 -166h-98z" />
    <glyph glyph-name="edieresis" unicode="&#xeb;" horiz-adv-x="901" 
d="M256 700l391 0.000976562v31c0 106 -15.5 185.833 -46.5 239.5s-77.5 80.5 -139.5 80.5c-69.333 0 -120.833 -28.833 -154.5 -86.5s-50.5 -145.834 -50.5 -264.501zM649 389.001l158.001 -0.00195312c-1.33301 -136 -32.5 -240 -93.5 -312s-147.833 -108 -260.5 -108
c-124 0 -215.5 48.333 -274.5 145s-88.5 246.334 -88.5 449.001c0 214.667 29.5 371.834 88.5 471.501s151.833 149.5 278.5 149.5c119.333 0 208.166 -42.333 266.499 -127s87.5 -213.667 87.5 -387c0 -27.333 -0.166992 -48 -0.5 -62s-0.833008 -26.667 -1.5 -38l-553 -1
v-51c0 -144 16.667 -249 50 -315s86.333 -99 159 -99c56.667 0 101.5 24.833 134.5 74.5s49.5 117.167 49.5 202.5v8zM563.001 1311v170h156v-170h-156zM235.001 1311v170h156v-170h-156z" />
    <glyph glyph-name="igrave" unicode="&#xec;" horiz-adv-x="408" 
d="M121 0v1151h166v-1151h-166zM326 1276h-101l-247 270h178z" />
    <glyph glyph-name="iacute" unicode="&#xed;" horiz-adv-x="408" 
d="M121 0v1151h166v-1151h-166zM84 1274l170 272h178l-247 -272h-101z" />
    <glyph glyph-name="icircumflex" unicode="&#xee;" horiz-adv-x="408" 
d="M121 0v1151h166v-1151h-166zM-51 1276l172 270h168l172 -270h-98l-158 166l-158 -166h-98z" />
    <glyph glyph-name="idieresis" unicode="&#xef;" horiz-adv-x="408" 
d="M121 0v1151h166v-1151h-166zM291 1311v170h156v-170h-156zM-37 1311v170h156v-170h-156z" />
    <glyph glyph-name="eth" unicode="&#xf0;" horiz-adv-x="989" 
d="M592 1083c-17.333 26 -39.833 52.5 -67.5 79.5s-62.5 56.5 -104.5 88.5l-242 -135l-45 82l205 117c-17.333 12 -39.5 25.833 -66.5 41.5l-101.5 56.5l41 127c44.667 -22 89.167 -45.5 133.5 -70.5s88.5 -51.833 132.5 -80.5l271 151l53 -82l-242 -137
c118 -91.333 203.833 -198.333 257.5 -321s80.5 -274.334 80.5 -455.001c0 -199.333 -32.333 -345.166 -97 -437.499s-166.667 -138.5 -306 -138.5s-241.5 46.167 -306.5 138.5s-97.5 238.166 -97.5 437.499c0 188.667 31.5 331.334 94.5 428.001s155.833 145 278.5 145
c24 0 46.5 -2.83301 67.5 -8.5s41.5 -14.5 61.5 -26.5zM262 551c0 -162.667 17.666 -277.001 52.999 -343.001s95 -99 179 -99c82 0 141 34 177 102s54 181.333 54 340c0 160 -17.667 273 -53 339s-94.666 99 -177.999 99s-142.833 -32.667 -178.5 -98
s-53.5 -178.666 -53.5 -339.999z" />
    <glyph glyph-name="ntilde" unicode="&#xf1;" horiz-adv-x="963" 
d="M123 0l0.000976562 1151h151v-143c28 56 66 98 114 126s106.333 42 175 42c101.333 0 173.5 -25.667 216.5 -77s64.5 -139.666 64.5 -264.999v-834h-162v846c0 62.667 -13.333 109.334 -40 140.001s-67.334 46 -122.001 46c-72 0 -129.167 -22.667 -171.5 -68
s-63.5 -106.666 -63.5 -183.999v-780h-162zM746.001 1518c-9.33301 -66 -28.1689 -116 -56.502 -150s-64.833 -51 -109.5 -51c-9.33301 0 -18.666 0.833008 -27.999 2.5s-19.666 4.16699 -30.999 7.5l-87 31c-3.33301 1.33301 -7.33301 2.33301 -12 3s-12 1 -22 1
c-15.333 0 -29.5 -5.83301 -42.5 -17.5s-22.833 -27.834 -29.5 -48.501h-76c14.667 64.667 36.667 113.334 66 146.001s66 49 110 49c8 0 15.167 -0.5 21.5 -1.5s12.833 -2.5 19.5 -4.5l107 -33c0.666992 0 2 -0.333008 4 -1c10.667 -2 18.667 -3 24 -3
c18 0 32.833 6 44.5 18s19.5 29.333 23.5 52h74z" />
    <glyph glyph-name="ograve" unicode="&#xf2;" horiz-adv-x="989" 
d="M90 575c0 206.667 33.165 359.835 99.498 459.502s167.833 149.5 304.5 149.5c138.667 0 240.834 -49.333 306.501 -148s98.5 -252.334 98.5 -461.001s-32.667 -361.834 -98 -459.501s-167.666 -146.5 -306.999 -146.5c-140 0 -242.333 48.5 -307 145.5
s-97 250.5 -97 460.5zM261.998 575.001c0 -172 17.667 -293.167 53 -363.5s95 -105.5 179 -105.5c82.667 0 141.834 35.833 177.501 107.5s53.5 192.167 53.5 361.5c0 170.667 -17.833 291.167 -53.5 361.5s-94.834 105.5 -177.501 105.5
c-83.333 0 -142.833 -34.833 -178.5 -104.5s-53.5 -190.5 -53.5 -362.5zM622.998 1276h-101l-247 270h178z" />
    <glyph glyph-name="oacute" unicode="&#xf3;" horiz-adv-x="989" 
d="M90 575c0 206.667 33.165 359.835 99.498 459.502s167.833 149.5 304.5 149.5c138.667 0 240.834 -49.333 306.501 -148s98.5 -252.334 98.5 -461.001s-32.667 -361.834 -98 -459.501s-167.666 -146.5 -306.999 -146.5c-140 0 -242.333 48.5 -307 145.5
s-97 250.5 -97 460.5zM261.998 575.001c0 -172 17.667 -293.167 53 -363.5s95 -105.5 179 -105.5c82.667 0 141.834 35.833 177.501 107.5s53.5 192.167 53.5 361.5c0 170.667 -17.833 291.167 -53.5 361.5s-94.834 105.5 -177.501 105.5
c-83.333 0 -142.833 -34.833 -178.5 -104.5s-53.5 -190.5 -53.5 -362.5zM380.998 1274l170 272h178l-247 -272h-101z" />
    <glyph glyph-name="ocircumflex" unicode="&#xf4;" horiz-adv-x="989" 
d="M90 575c0 206.667 33.165 359.835 99.498 459.502s167.833 149.5 304.5 149.5c138.667 0 240.834 -49.333 306.501 -148s98.5 -252.334 98.5 -461.001s-32.667 -361.834 -98 -459.501s-167.666 -146.5 -306.999 -146.5c-140 0 -242.333 48.5 -307 145.5
s-97 250.5 -97 460.5zM261.998 575.001c0 -172 17.667 -293.167 53 -363.5s95 -105.5 179 -105.5c82.667 0 141.834 35.833 177.501 107.5s53.5 192.167 53.5 361.5c0 170.667 -17.833 291.167 -53.5 361.5s-94.834 105.5 -177.501 105.5
c-83.333 0 -142.833 -34.833 -178.5 -104.5s-53.5 -190.5 -53.5 -362.5zM245.998 1276l172 270h168l172 -270h-98l-158 166l-158 -166h-98z" />
    <glyph glyph-name="otilde" unicode="&#xf5;" horiz-adv-x="989" 
d="M90 575c0 206.667 33.165 359.835 99.498 459.502s167.833 149.5 304.5 149.5c138.667 0 240.834 -49.333 306.501 -148s98.5 -252.334 98.5 -461.001s-32.667 -361.834 -98 -459.501s-167.666 -146.5 -306.999 -146.5c-140 0 -242.333 48.5 -307 145.5
s-97 250.5 -97 460.5zM261.998 575.001c0 -172 17.667 -293.167 53 -363.5s95 -105.5 179 -105.5c82.667 0 141.834 35.833 177.501 107.5s53.5 192.167 53.5 361.5c0 170.667 -17.833 291.167 -53.5 361.5s-94.834 105.5 -177.501 105.5
c-83.333 0 -142.833 -34.833 -178.5 -104.5s-53.5 -190.5 -53.5 -362.5zM747.998 1518c-9.33301 -66 -28.1689 -116 -56.502 -150s-64.833 -51 -109.5 -51c-9.33301 0 -18.666 0.833008 -27.999 2.5s-19.666 4.16699 -30.999 7.5l-87 31
c-3.33301 1.33301 -7.33301 2.33301 -12 3s-12 1 -22 1c-15.333 0 -29.5 -5.83301 -42.5 -17.5s-22.833 -27.834 -29.5 -48.501h-76c14.667 64.667 36.667 113.334 66 146.001s66 49 110 49c8 0 15.167 -0.5 21.5 -1.5s12.833 -2.5 19.5 -4.5l107 -33
c0.666992 0 2 -0.333008 4 -1c10.667 -2 18.667 -3 24 -3c18 0 32.833 6 44.5 18s19.5 29.333 23.5 52h74z" />
    <glyph glyph-name="odieresis" unicode="&#xf6;" horiz-adv-x="989" 
d="M90 575c0 206.667 33.165 359.835 99.498 459.502s167.833 149.5 304.5 149.5c138.667 0 240.834 -49.333 306.501 -148s98.5 -252.334 98.5 -461.001s-32.667 -361.834 -98 -459.501s-167.666 -146.5 -306.999 -146.5c-140 0 -242.333 48.5 -307 145.5
s-97 250.5 -97 460.5zM261.998 575.001c0 -172 17.667 -293.167 53 -363.5s95 -105.5 179 -105.5c82.667 0 141.834 35.833 177.501 107.5s53.5 192.167 53.5 361.5c0 170.667 -17.833 291.167 -53.5 361.5s-94.834 105.5 -177.501 105.5
c-83.333 0 -142.833 -34.833 -178.5 -104.5s-53.5 -190.5 -53.5 -362.5zM587.998 1311v170h156v-170h-156zM259.998 1311v170h156v-170h-156z" />
    <glyph glyph-name="divide" unicode="&#xf7;" horiz-adv-x="1706" 
d="M854 367c34 0 63.333 -12.333 88 -37s37 -54 37 -88c0 -34.667 -12.167 -64.167 -36.5 -88.5s-53.833 -36.5 -88.5 -36.5c-35.333 0 -65 12 -89 36s-36 53.667 -36 89c0 34 12.333 63.333 37 88s54 37 88 37zM1452 680v-139h-1198v139h1198zM854 1106
c34 0 63.333 -12.5 88 -37.5s37 -54.833 37 -89.5c0 -34 -12.167 -63.333 -36.5 -88s-53.833 -37 -88.5 -37s-64.167 12.167 -88.5 36.5s-36.5 53.833 -36.5 88.5s12.333 64.5 37 89.5s54 37.5 88 37.5z" />
    <glyph glyph-name="oslash" unicode="&#xf8;" horiz-adv-x="989" 
d="M674 938c-17.333 34 -41.5 59.833 -72.5 77.5s-66.833 26.5 -107.5 26.5c-85.333 0 -145.333 -33.833 -180 -101.5s-52 -188.5 -52 -362.5c0 -52 1 -96.5 3 -133.5s5 -71.167 9 -102.5zM309 223c16.667 -40 39.666 -69 68.999 -87s68 -27 116 -27
c82.667 0 141.834 35.667 177.501 107s53.5 192 53.5 362c0 38.667 -1.33301 77.667 -4 117s-6.66699 80 -12 122zM28.999 -25l128.999 192.999c-22.667 52.667 -39.667 112.5 -51 179.5s-17 140.167 -17 219.5c0 210.667 32.667 366.167 98 466.5s167.333 150.5 306 150.5
c62 0 115 -8.66699 159 -26s82.333 -44.333 115 -81l102 152l78 -53l-123 -185c25.333 -46.667 44 -105.167 56 -175.5s18 -154.5 18 -252.5c0 -201.333 -33.167 -350.666 -99.5 -447.999s-168.166 -146 -305.499 -146c-62 0 -115.5 9 -160.5 27s-85.167 46 -120.5 84
l-107 -162z" />
    <glyph glyph-name="ugrave" unicode="&#xf9;" horiz-adv-x="963" 
d="M682 0l0.000976562 150.001c-22.667 -58 -58.834 -102.667 -108.501 -134s-109.167 -47 -178.5 -47c-96 0 -166 23.667 -210 71s-66 122.666 -66 225.999v885h168v-889c0 -47.333 11.833 -84 35.5 -110s56.834 -39 99.501 -39c77.333 0 137.666 24 180.999 72
s65 115.333 65 202v764h163v-1151h-149zM596.001 1276h-101l-247 270h178z" />
    <glyph glyph-name="uacute" unicode="&#xfa;" horiz-adv-x="963" 
d="M682 0l0.000976562 150.001c-22.667 -58 -58.834 -102.667 -108.501 -134s-109.167 -47 -178.5 -47c-96 0 -166 23.667 -210 71s-66 122.666 -66 225.999v885h168v-889c0 -47.333 11.833 -84 35.5 -110s56.834 -39 99.501 -39c77.333 0 137.666 24 180.999 72
s65 115.333 65 202v764h163v-1151h-149zM354.001 1274l170 272h178l-247 -272h-101z" />
    <glyph glyph-name="ucircumflex" unicode="&#xfb;" horiz-adv-x="963" 
d="M682 0l0.000976562 150.001c-22.667 -58 -58.834 -102.667 -108.501 -134s-109.167 -47 -178.5 -47c-96 0 -166 23.667 -210 71s-66 122.666 -66 225.999v885h168v-889c0 -47.333 11.833 -84 35.5 -110s56.834 -39 99.501 -39c77.333 0 137.666 24 180.999 72
s65 115.333 65 202v764h163v-1151h-149zM219.001 1276l172 270h168l172 -270h-98l-158 166l-158 -166h-98z" />
    <glyph glyph-name="udieresis" unicode="&#xfc;" horiz-adv-x="963" 
d="M682 0l0.000976562 150.001c-22.667 -58 -58.834 -102.667 -108.501 -134s-109.167 -47 -178.5 -47c-96 0 -166 23.667 -210 71s-66 122.666 -66 225.999v885h168v-889c0 -47.333 11.833 -84 35.5 -110s56.834 -39 99.501 -39c77.333 0 137.666 24 180.999 72
s65 115.333 65 202v764h163v-1151h-149zM561.001 1311v170h156v-170h-156zM233.001 1311v170h156v-170h-156z" />
    <glyph glyph-name="yacute" unicode="&#xfd;" horiz-adv-x="909" 
d="M78 -369l-0.00292969 146c16.667 -7.33301 33.334 -12.666 50.001 -15.999s33.334 -5 50.001 -5c47.333 0 84.833 16 112.5 48s55.167 94 82.5 186l-338 1161h174l246 -928l254 928h165l-354 -1202c-37.333 -130.667 -80.333 -219.334 -129 -266.001
s-117.667 -70 -207 -70c-13.333 0 -29.166 1.5 -47.499 4.5s-37.833 7.5 -58.5 13.5zM333.997 1274l170 272h178l-247 -272h-101z" />
    <glyph glyph-name="thorn" unicode="&#xfe;" horiz-adv-x="975" 
d="M123 -389v1929h166v-506c17.333 45.333 46.5 80.666 87.5 105.999s89.5 38 145.5 38c121.333 0 212.5 -50.167 273.5 -150.5s91.5 -250.166 91.5 -449.499c0 -207.333 -28.333 -359.666 -85 -456.999s-145 -146 -265 -146c-54 0 -102.833 13 -146.5 39
s-77.5 62.333 -101.5 109v-512h-166zM279 579.999c0 -157.333 18.667 -273.833 56 -349.5s95 -113.5 173 -113.5c71.333 0 123.333 36.5 156 109.5s49 191.5 49 355.5c0 159.333 -16.667 274.5 -50 345.5s-87 106.5 -161 106.5c-79.333 0 -136.333 -35 -171 -105
s-52 -186.333 -52 -349z" />
    <glyph glyph-name="ydieresis" unicode="&#xff;" horiz-adv-x="909" 
d="M78 -369l-0.00292969 146c16.667 -7.33301 33.334 -12.666 50.001 -15.999s33.334 -5 50.001 -5c47.333 0 84.833 16 112.5 48s55.167 94 82.5 186l-338 1161h174l246 -928l254 928h165l-354 -1202c-37.333 -130.667 -80.333 -219.334 -129 -266.001
s-117.667 -70 -207 -70c-13.333 0 -29.166 1.5 -47.499 4.5s-37.833 7.5 -58.5 13.5zM540.997 1311v170h156v-170h-156zM212.997 1311v170h156v-170h-156z" />
    <glyph glyph-name="Cacute" unicode="&#x106;" horiz-adv-x="1157" 
d="M866 565l169.998 0.000976562c-2 -195.333 -42.5 -344.5 -121.5 -447.5s-192.833 -154.5 -341.5 -154.5c-158.667 0 -276.167 65.5 -352.5 196.5s-114.5 333.167 -114.5 606.5c0 285.333 37.833 491.833 113.5 619.5s197.834 191.5 366.501 191.5
c140.667 0 249.167 -40.833 325.5 -122.5s114.5 -197.834 114.5 -348.501v-19h-166c0 105.333 -24.667 188 -74 248s-116.666 90 -201.999 90c-104.667 0 -180 -50.833 -226 -152.5s-69 -270.5 -69 -506.5c0 -230.667 23.667 -394.834 71 -492.501
s125.333 -146.5 234 -146.5c87.333 0 154.5 35.833 201.5 107.5s70.5 173.834 70.5 306.501v24zM482.998 1686l170 272h178l-247 -272h-101z" />
    <glyph glyph-name="cacute" unicode="&#x107;" horiz-adv-x="942" 
d="M680 405l158 0.998047c0 -139.333 -32 -247 -96 -323s-154.333 -114 -271 -114c-128 0 -222.833 50.333 -284.5 151s-92.5 255.334 -92.5 464.001c0 200.667 32 350.5 96 449.5s161 148.5 291 148.5c107.333 0 192.166 -32.833 254.499 -98.5s93.5 -155.167 93.5 -268.5
v-24h-157c-3.33301 80.667 -20.666 142 -51.999 184s-75.666 63 -132.999 63c-78.667 0 -134.834 -34.833 -168.501 -104.5s-50.5 -188.167 -50.5 -355.5c0 -169.333 17 -289.166 51 -359.499s90.667 -105.5 170 -105.5c60 0 106.333 25 139 75s50 122.333 52 217zM364 1274
l170 272h178l-247 -272h-101z" />
    <glyph glyph-name="Ccaron" unicode="&#x10c;" horiz-adv-x="1157" 
d="M866 565l169.998 0.000976562c-2 -195.333 -42.5 -344.5 -121.5 -447.5s-192.833 -154.5 -341.5 -154.5c-158.667 0 -276.167 65.5 -352.5 196.5s-114.5 333.167 -114.5 606.5c0 285.333 37.833 491.833 113.5 619.5s197.834 191.5 366.501 191.5
c140.667 0 249.167 -40.833 325.5 -122.5s114.5 -197.834 114.5 -348.501v-19h-166c0 105.333 -24.667 188 -74 248s-116.666 90 -201.999 90c-104.667 0 -180 -50.833 -226 -152.5s-69 -270.5 -69 -506.5c0 -230.667 23.667 -394.834 71 -492.501
s125.333 -146.5 234 -146.5c87.333 0 154.5 35.833 201.5 107.5s70.5 173.834 70.5 306.501v24zM347.998 1958h98l158 -166l158 166h98l-172 -270h-168z" />
    <glyph glyph-name="ccaron" unicode="&#x10d;" horiz-adv-x="942" 
d="M680 405l158 0.998047c0 -139.333 -32 -247 -96 -323s-154.333 -114 -271 -114c-128 0 -222.833 50.333 -284.5 151s-92.5 255.334 -92.5 464.001c0 200.667 32 350.5 96 449.5s161 148.5 291 148.5c107.333 0 192.166 -32.833 254.499 -98.5s93.5 -155.167 93.5 -268.5
v-24h-157c-3.33301 80.667 -20.666 142 -51.999 184s-75.666 63 -132.999 63c-78.667 0 -134.834 -34.833 -168.501 -104.5s-50.5 -188.167 -50.5 -355.5c0 -169.333 17 -289.166 51 -359.499s90.667 -105.5 170 -105.5c60 0 106.333 25 139 75s50 122.333 52 217zM229 1546
h98l158 -166l158 166h98l-172 -270h-168z" />
    <glyph glyph-name="dcroat" unicode="&#x111;" horiz-adv-x="993" 
d="M705 0l-0.000976562 144.999c-12.667 -49.333 -42.167 -89.666 -88.5 -120.999s-100.166 -47 -161.499 -47c-118 0 -208.333 54.5 -271 163.5s-94 266.167 -94 471.5c0 179.333 31.333 318.5 94 417.5s150 148.5 262 148.5c60 0 113.5 -14 160.5 -42
s76.167 -62.667 87.5 -104v248h-248v100h248v160h162v-160h160v-100h-160v-1280h-151zM704.999 583.999c0 168.667 -16.667 285.832 -50 351.499s-89.333 98.5 -168 98.5c-75.333 0 -131 -35.667 -167 -107s-54 -181.666 -54 -330.999c0 -168 17 -289.167 51 -363.5
s88.667 -111.5 164 -111.5c79.333 0 136.5 35.333 171.5 106s52.5 189.667 52.5 357z" />
    <glyph glyph-name="Gbreve" unicode="&#x11e;" horiz-adv-x="1214" 
d="M954 0l-9.99902 213.003c-28 -80.667 -72.5 -142.5 -133.5 -185.5s-134.5 -64.5 -220.5 -64.5c-166 0 -288.167 66 -366.5 198s-117.5 338.333 -117.5 619c0 279.333 41.167 482 123.5 608s214.166 189 395.499 189c139.333 0 248.166 -41.833 326.499 -125.5
s118.166 -200.834 119.499 -351.501h-170c-3.33301 105.333 -29.666 186.666 -78.999 243.999s-118 86 -206 86c-119.333 0 -204.333 -52.333 -255 -157s-76 -285.334 -76 -542.001c0 -206 27 -358.5 81 -457.5s136.667 -148.5 248 -148.5c100.667 0 177.5 38.667 230.5 116
s79.5 189.666 79.5 336.999c0 18 -0.166992 31.833 -0.5 41.5s-1.16602 18.834 -2.49902 27.501h-348v156h514v-803h-133zM354.001 1950h93.999c6.66699 -42.667 22.5 -73.5 47.5 -92.5s62.5 -28.5 112.5 -28.5c49.333 0 86.5 9.66699 111.5 29s40.5 50 46.5 92h94
c-8 -88.667 -32.167 -153.5 -72.5 -194.5s-100.166 -61.5 -179.499 -61.5s-139.5 20.5 -180.5 61.5s-65.5 105.833 -73.5 194.5z" />
    <glyph glyph-name="gbreve" unicode="&#x11f;" horiz-adv-x="973" 
d="M262 573c0 -160.667 16.834 -275.834 50.501 -345.501s88.5 -104.5 164.5 -104.5c79.333 0 136 35.333 170 106s51 190.334 51 359.001c0 158.667 -17.833 273.667 -53.5 345s-92.834 107 -171.501 107c-74 0 -127.667 -36.333 -161 -109s-50 -192 -50 -358z
M127.001 -106l160 -1c3.33301 -46.667 20.833 -81.834 52.5 -105.501s76.834 -35.5 135.501 -35.5c78.667 0 135.5 25.667 170.5 77s52.5 134.333 52.5 249c0 3.33301 -0.333008 11.666 -1 24.999s-1 25.333 -1 36c-23.333 -52 -56.5 -91.167 -99.5 -117.5
s-95.167 -39.5 -156.5 -39.5c-116.667 0 -203.834 51.833 -261.501 155.5s-86.5 261.167 -86.5 472.5c0 188.667 30.167 330.5 90.5 425.5s150.5 142.5 270.5 142.5c60.667 0 112.334 -14.167 155.001 -42.5s72.667 -68.166 90 -119.499v135h156v-1098
c0 -141.333 -34 -250.333 -102 -327s-164.333 -115 -289 -115c-98.667 0 -179.334 25.833 -242.001 77.5s-94 117.834 -94 198.501v7zM233.001 1538h93.999c6.66699 -42.667 22.5 -73.5 47.5 -92.5s62.5 -28.5 112.5 -28.5c49.333 0 86.5 9.66699 111.5 29s40.5 50 46.5 92
h94c-8 -88.667 -32.167 -153.5 -72.5 -194.5s-100.166 -61.5 -179.499 -61.5s-139.5 20.5 -180.5 61.5s-65.5 105.833 -73.5 194.5z" />
    <glyph glyph-name="Idotaccent" unicode="&#x130;" horiz-adv-x="451" 
d="M137 0v1540h176v-1540h-176zM129 1741v219h192v-219h-192z" />
    <glyph glyph-name="dotlessi" unicode="&#x131;" horiz-adv-x="408" 
d="M121 0v1151h166v-1151h-166z" />
    <glyph glyph-name="Lslash" unicode="&#x141;" horiz-adv-x="993" 
d="M156 0v596l-156 -111v168l156 107v780h172v-663l307 217v-170l-307 -215v-543h614v-166h-786z" />
    <glyph glyph-name="lslash" unicode="&#x142;" horiz-adv-x="428" 
d="M143 0v719l-143 -101v115l143 98v709h160v-629l146 101v-115l-146 -100v-797h-160z" />
    <glyph glyph-name="OE" unicode="&#x152;" horiz-adv-x="1747" 
d="M881 498v567c0 124.667 -22.667 215.5 -68 272.5s-117 85.5 -215 85.5c-113.333 0 -193.833 -46.333 -241.5 -139s-71.5 -253.667 -71.5 -483c0 -266.667 23 -447.667 69 -543s127.333 -143 244 -143c100.667 0 173 29.5 217 88.5s66 157.167 66 294.5zM881 0v132.998
c-26.667 -56 -66 -98.333 -118 -127s-116 -43 -192 -43c-160.667 0 -278.667 64.833 -354 194.5s-113 333.834 -113 612.501s37.667 482.834 113 612.501s193.333 194.5 354 194.5c76 0 140 -14.333 192 -43s91.333 -71 118 -127v133h764v-160h-596v-495h555v-156h-555v-567
h602v-162h-770z" />
    <glyph glyph-name="oe" unicode="&#x153;" horiz-adv-x="1485" 
d="M854 698l373 0.000976562c0 5.33301 0.333008 14.166 1 26.499s1 22.166 1 29.499c0 94 -16 166.667 -48 218s-77.667 77 -137 77c-65.333 0 -113.333 -28.167 -144 -84.5s-46 -145.166 -46 -266.499zM260 565.001c0 -166.667 17.333 -285.167 52 -355.5
s91.667 -105.5 171 -105.5c78 0 133 33.833 165 101.5s48 188.834 48 363.501c0 187.333 -15.833 314.166 -47.5 380.499s-87.5 99.5 -167.5 99.5c-81.333 0 -138.5 -34.833 -171.5 -104.5s-49.5 -196.167 -49.5 -379.5zM770 137.001c-26.667 -56 -63.5 -97.667 -110.5 -125
s-106.5 -41 -178.5 -41c-134.667 0 -233.5 47.667 -296.5 143s-94.5 245 -94.5 449c0 216.667 31 374 93 472s160.667 147 296 147c68.667 0 127 -13 175 -39s88 -66.333 120 -121c30 53.333 67.333 93.333 112 120s97.334 40 158.001 40
c117.333 0 204.166 -42.167 260.499 -126.5s84.5 -214.833 84.5 -391.5c0 -26 -0.166992 -45.667 -0.5 -59s-1.16602 -26 -2.49902 -38h-530v-71c0 -143.333 14.667 -244.5 44 -303.5s78.333 -88.5 147 -88.5c58.667 0 104 24 136 72s48.667 117 50 207h149
c-4 -132 -34.333 -233.667 -91 -305s-135.334 -107 -236.001 -107c-71.333 0 -130.333 13.667 -177 41s-82.667 69 -108 125z" />
    <glyph glyph-name="Scedilla" unicode="&#x15e;" horiz-adv-x="1098" 
d="M104 489l163.999 0.000976562v-55c0 -104.667 24.167 -183.667 72.5 -237s119.833 -80 214.5 -80c85.333 0 152.333 25.667 201 77s73 122 73 212c0 72 -14.833 127.5 -44.5 166.5s-96.5 78.167 -200.5 117.5l-104 39c-124.667 45.333 -200 79.333 -226 102
c-42.667 38 -74.5 83.167 -95.5 135.5s-31.5 113.166 -31.5 182.499c0 134 37 238.833 111 314.5s177 113.5 309 113.5c125.333 0 223.5 -35 294.5 -105s106.5 -166.667 106.5 -290c0 -4 -0.333008 -10.5 -1 -19.5s-1 -15.5 -1 -19.5h-158v16
c0 86.667 -21.167 153.5 -63.5 200.5s-102.166 70.5 -179.499 70.5c-80 0 -143 -22.5 -189 -67.5s-69 -105.833 -69 -182.5c0 -72.667 15.667 -129 47 -169s99.666 -79.333 204.999 -118l56 -21c160.667 -59.333 256.667 -103.666 288 -132.999
c38 -35.333 66.167 -78.333 84.5 -129s27.5 -111.334 27.5 -182.001c0 -146 -40.333 -259.667 -121 -341s-193 -122 -337 -122c-143.333 0 -251.666 40 -324.999 120s-110 197.667 -110 353c0 5.33301 0.333008 13.833 1 25.5s1 20.167 1 25.5zM366.999 -341.999
l15.998 -2.99805c84.667 -14.667 138.667 -22 162 -22c36 0 63.333 7.16699 82 21.5s28 35.166 28 62.499c0 28 -9.83301 49.667 -29.5 65s-47.167 23 -82.5 23c-4.66699 0 -9.33398 -0.166992 -14.001 -0.5s-12.334 -1.16602 -23.001 -2.49902v198h76v-102h6
c64.667 0 115.334 -15.5 152.001 -46.5s55 -73.5 55 -127.5c0 -64.667 -20.667 -113.334 -62 -146.001s-102.666 -49 -183.999 -49c-25.333 0 -53.166 2.16699 -83.499 6.5s-63.166 11.166 -98.499 20.499v102z" />
    <glyph glyph-name="scedilla" unicode="&#x15f;" horiz-adv-x="909" 
d="M92 346l160.003 0.00390625c0 -1.33301 -0.333008 -3.33301 -1 -6c-2 -14.667 -3 -25.667 -3 -33c0 -62.667 17.833 -110.334 53.5 -143.001s87.5 -49 155.5 -49c62 0 110.833 16.667 146.5 50s53.5 78.666 53.5 135.999c0 90.667 -69.667 160 -209 208l-3 1
c-140 48.667 -230.667 97 -272 145s-62 117.667 -62 209c0 100.667 29.5 179.167 88.5 235.5s141.167 84.5 246.5 84.5c112 0 196.333 -27 253 -81s85 -133.667 85 -239v-16h-153c-3.33301 69.333 -19 119.833 -47 151.5s-71.667 47.5 -131 47.5
c-62.667 0 -109.834 -14.833 -141.501 -44.5s-47.5 -73.834 -47.5 -132.501c0 -26 4.16699 -49.333 12.5 -70s20.5 -37.334 36.5 -50.001c29.333 -25.333 87.666 -52 174.999 -80c46.667 -14.667 82.667 -27 108 -37c79.333 -30.667 136 -69.5 170 -116.5
s51 -109.167 51 -186.5c0 -115.333 -33.167 -204.333 -99.5 -267s-160.833 -94 -283.5 -94c-112.667 0 -197.834 29.833 -255.501 89.5s-86.5 147.5 -86.5 263.5v24zM273.003 -341.996l15.998 -2.99805c84.667 -14.667 138.667 -22 162 -22c36 0 63.333 7.16699 82 21.5
s28 35.166 28 62.499c0 28 -9.83301 49.667 -29.5 65s-47.167 23 -82.5 23c-4.66699 0 -9.33398 -0.166992 -14.001 -0.5s-12.334 -1.16602 -23.001 -2.49902v198h76v-102h6c64.667 0 115.334 -15.5 152.001 -46.5s55 -73.5 55 -127.5
c0 -64.667 -20.667 -113.334 -62 -146.001s-102.666 -49 -183.999 -49c-25.333 0 -53.166 2.16699 -83.499 6.5s-63.166 11.166 -98.499 20.499v102z" />
    <glyph glyph-name="Scaron" unicode="&#x160;" horiz-adv-x="1098" 
d="M104 489l163.999 0.000976562v-55c0 -104.667 24.167 -183.667 72.5 -237s119.833 -80 214.5 -80c85.333 0 152.333 25.667 201 77s73 122 73 212c0 72 -14.833 127.5 -44.5 166.5s-96.5 78.167 -200.5 117.5l-104 39c-124.667 45.333 -200 79.333 -226 102
c-42.667 38 -74.5 83.167 -95.5 135.5s-31.5 113.166 -31.5 182.499c0 134 37 238.833 111 314.5s177 113.5 309 113.5c125.333 0 223.5 -35 294.5 -105s106.5 -166.667 106.5 -290c0 -4 -0.333008 -10.5 -1 -19.5s-1 -15.5 -1 -19.5h-158v16
c0 86.667 -21.167 153.5 -63.5 200.5s-102.166 70.5 -179.499 70.5c-80 0 -143 -22.5 -189 -67.5s-69 -105.833 -69 -182.5c0 -72.667 15.667 -129 47 -169s99.666 -79.333 204.999 -118l56 -21c160.667 -59.333 256.667 -103.666 288 -132.999
c38 -35.333 66.167 -78.333 84.5 -129s27.5 -111.334 27.5 -182.001c0 -146 -40.333 -259.667 -121 -341s-193 -122 -337 -122c-143.333 0 -251.666 40 -324.999 120s-110 197.667 -110 353c0 5.33301 0.333008 13.833 1 25.5s1 20.167 1 25.5zM292.999 1958h98l158 -166
l158 166h98l-172 -270h-168z" />
    <glyph glyph-name="scaron" unicode="&#x161;" horiz-adv-x="909" 
d="M92 346l160.003 0.00390625c0 -1.33301 -0.333008 -3.33301 -1 -6c-2 -14.667 -3 -25.667 -3 -33c0 -62.667 17.833 -110.334 53.5 -143.001s87.5 -49 155.5 -49c62 0 110.833 16.667 146.5 50s53.5 78.666 53.5 135.999c0 90.667 -69.667 160 -209 208l-3 1
c-140 48.667 -230.667 97 -272 145s-62 117.667 -62 209c0 100.667 29.5 179.167 88.5 235.5s141.167 84.5 246.5 84.5c112 0 196.333 -27 253 -81s85 -133.667 85 -239v-16h-153c-3.33301 69.333 -19 119.833 -47 151.5s-71.667 47.5 -131 47.5
c-62.667 0 -109.834 -14.833 -141.501 -44.5s-47.5 -73.834 -47.5 -132.501c0 -26 4.16699 -49.333 12.5 -70s20.5 -37.334 36.5 -50.001c29.333 -25.333 87.666 -52 174.999 -80c46.667 -14.667 82.667 -27 108 -37c79.333 -30.667 136 -69.5 170 -116.5
s51 -109.167 51 -186.5c0 -115.333 -33.167 -204.333 -99.5 -267s-160.833 -94 -283.5 -94c-112.667 0 -197.834 29.833 -255.501 89.5s-86.5 147.5 -86.5 263.5v24zM199.003 1546h98l158 -166l158 166h98l-172 -270h-168z" />
    <glyph glyph-name="Ydieresis" unicode="&#x178;" horiz-adv-x="1028" 
d="M424 0v596l-455 944h205l340 -758l356 758h187l-459 -944v-596h-174zM600 1723v170h156v-170h-156zM272 1723v170h156v-170h-156z" />
    <glyph glyph-name="Zcaron" unicode="&#x17d;" horiz-adv-x="905" 
d="M47 0v160l621 1220h-586v160h768v-158l-617 -1216h625v-166h-811zM197 1958h98l158 -166l158 166h98l-172 -270h-168z" />
    <glyph glyph-name="zcaron" unicode="&#x17e;" horiz-adv-x="793" 
d="M47 0v147l494 859h-473v145h665v-129l-504 -868h514v-154h-696zM141 1546h98l158 -166l158 166h98l-172 -270h-168z" />
    <glyph glyph-name="florin" unicode="&#x192;" horiz-adv-x="1020" 
d="M471 850h-223.001v131h244l28 156c29.333 156 69.333 264.167 120 324.5s124 90.5 220 90.5c26 0 51.5 -2.66699 76.5 -8s50.167 -13.333 75.5 -24l-37 -142c-22 9.33301 -42.333 16.5 -61 21.5s-35.334 7.5 -50.001 7.5c-56.667 0 -99.667 -28.667 -129 -86
s-54.666 -170.666 -75.999 -339.999h244v-131h-264l-98 -614c-42.667 -268.667 -89.667 -439.667 -141 -513s-129.333 -110 -234 -110c-26 0 -51.5 2.66699 -76.5 8s-50.167 13.666 -75.5 24.999l37 141c22 -9.33301 42.333 -16.5 61 -21.5s35.334 -7.5 50.001 -7.5
c91.333 0 159 138.667 203 416l2 11z" />
    <glyph glyph-name="circumflex" unicode="&#x2c6;" 
d="M256 1276l172 270h168l172 -270h-98l-158 166l-158 -166h-98z" />
    <glyph glyph-name="caron" unicode="&#x2c7;" 
d="M256 1546h98l158 -166l158 166h98l-172 -270h-168z" />
    <glyph glyph-name="breve" unicode="&#x2d8;" 
d="M258 1538h93.999c6.66699 -42.667 22.5 -73.5 47.5 -92.5s62.5 -28.5 112.5 -28.5c49.333 0 86.5 9.66699 111.5 29s40.5 50 46.5 92h94c-8 -88.667 -32.167 -153.5 -72.5 -194.5s-100.166 -61.5 -179.499 -61.5s-139.5 20.5 -180.5 61.5s-65.5 105.833 -73.5 194.5z" />
    <glyph glyph-name="dotaccent" unicode="&#x2d9;" 
d="M416 1329v219h192v-219h-192z" />
    <glyph glyph-name="ring" unicode="&#x2da;" 
d="M377 1509c0 -37.333 13.002 -69.166 39.002 -95.499s58 -39.5 96 -39.5c37.333 0 69.166 13.167 95.499 39.5s39.5 58.166 39.5 95.499s-13.333 69.333 -40 96s-58.334 40 -95.001 40c-38 0 -70 -13.167 -96 -39.5s-39 -58.5 -39 -96.5zM260.002 1509
c0 70.667 24.333 130.334 73 179.001s108.334 73 179.001 73s130.667 -24.333 180 -73s74 -108.334 74 -179.001s-24.667 -130.667 -74 -180s-109.333 -74 -180 -74s-130.334 24.667 -179.001 74s-73 109.333 -73 180z" />
    <glyph glyph-name="ogonek" unicode="&#x2db;" 
d="M588 0c-47.333 -42 -82 -80.832 -104 -116.499s-33 -70.5 -33 -104.5c0 -28.667 7 -48.834 21 -60.501s39 -17.5 75 -17.5h69v-143h-71c-75.333 0 -131.833 14 -169.5 42s-56.5 70 -56.5 126c0 44 14.667 87.5 44 130.5s77 90.833 143 143.5h82z" />
    <glyph glyph-name="tilde" unicode="&#x2dc;" 
d="M758 1518c-9.33301 -66 -28.1689 -116 -56.502 -150s-64.833 -51 -109.5 -51c-9.33301 0 -18.666 0.833008 -27.999 2.5s-19.666 4.16699 -30.999 7.5l-87 31c-3.33301 1.33301 -7.33301 2.33301 -12 3s-12 1 -22 1c-15.333 0 -29.5 -5.83301 -42.5 -17.5
s-22.833 -27.834 -29.5 -48.501h-76c14.667 64.667 36.667 113.334 66 146.001s66 49 110 49c8 0 15.167 -0.5 21.5 -1.5s12.833 -2.5 19.5 -4.5l107 -33c0.666992 0 2 -0.333008 4 -1c10.667 -2 18.667 -3 24 -3c18 0 32.833 6 44.5 18s19.5 29.333 23.5 52h74z" />
    <glyph glyph-name="hungarumlaut" unicode="&#x2dd;" 
d="M569 1276l148 348h166l-217 -348h-97zM311 1276l117 348h168l-188 -348h-97z" />
    <glyph glyph-name="Omega" unicode="&#x3a9;" horiz-adv-x="1565" 
d="M1487 178l-0.00195312 -178h-600v178c118 64.667 210 152.334 276 263.001s99 233.334 99 368.001c0 160 -44 288.333 -132 385s-204 145 -348 145s-260.167 -48.5 -348.5 -145.5s-132.5 -225.167 -132.5 -384.5c0 -134.667 33.167 -257.334 99.5 -368.001
s158.833 -198.334 277.5 -263.001v-178h-600v178h319c-105.333 92.667 -182.166 188.667 -230.499 288s-72.5 210.333 -72.5 333c0 212 63.833 383.667 191.5 515s293.167 197 496.5 197c202 0 367.167 -65.5 495.5 -196.5s192.5 -299.5 192.5 -505.5
c0 -129.333 -23.667 -243.333 -71 -342s-124.666 -195 -231.999 -289h320z" />
    <glyph glyph-name="pi" unicode="&#x3c0;" horiz-adv-x="1206" 
d="M1159 913h-182.002l-105 -487c-10 -49.333 -17.5 -89.333 -22.5 -120s-7.5 -53.334 -7.5 -68.001c0 -38.667 7.83301 -66.167 23.5 -82.5s41.834 -24.5 78.501 -24.5c11.333 0 24.666 0.833008 39.999 2.5s35.333 4.16699 60 7.5l-30 -141
c-20 -5.33301 -39.167 -9.33301 -57.5 -12s-36.166 -4 -53.499 -4c-78.667 0 -138.167 17 -178.5 51s-60.5 84.333 -60.5 151c0 30.667 3.5 70 10.5 118s21.833 125.667 44.5 233l80 376h-326l-194 -913h-181l195 913h-41c-36 0 -64 -10.667 -84 -32s-33 -55 -39 -101h-160
c18.667 110.667 51.834 186.834 99.501 228.501s126.5 62.5 236.5 62.5h889z" />
    <glyph glyph-name="endash" unicode="&#x2013;" 
d="M0 502v147h1024v-147h-1024z" />
    <glyph glyph-name="emdash" unicode="&#x2014;" horiz-adv-x="2048" 
d="M0 502v147h2048v-147h-2048z" />
    <glyph glyph-name="quoteleft" unicode="&#x2018;" horiz-adv-x="502" 
d="M342 1577v-98c-28 -5.33301 -49.667 -24.333 -65 -57s-23 -76 -23 -130v-10h88v-211h-182v211c0 77.333 16.333 142.333 49 195s77 86 133 100z" />
    <glyph glyph-name="quoteright" unicode="&#x2019;" horiz-adv-x="502" 
d="M160 1036v97c27.333 5.33301 48.833 24.5 64.5 57.5s23.5 76.5 23.5 130.5v10h-88v209h182v-211c0 -77.333 -16.333 -142 -49 -194s-77 -85 -133 -99z" />
    <glyph glyph-name="quotesinglbase" unicode="&#x201a;" horiz-adv-x="502" 
d="M160 -295v96c27.333 5.33301 48.833 24.5 64.5 57.5s23.5 76.833 23.5 131.5v10h-88v211h182v-211c0 -77.333 -16.333 -142.333 -49 -195s-77 -86 -133 -100z" />
    <glyph glyph-name="quotedblleft" unicode="&#x201c;" horiz-adv-x="795" 
d="M342 1575v-96c-28 -5.33301 -49.667 -24.5 -65 -57.5s-23 -76.833 -23 -131.5v-10h88v-209h-182v211c0 77.333 16.333 142 49 194s77 85 133 99zM633 1575v-96c-28 -5.33301 -49.667 -24.5 -65 -57.5s-23 -76.833 -23 -131.5v-10h88v-209h-182v211
c0 77.333 16.167 142 48.5 194s76.833 85 133.5 99z" />
    <glyph glyph-name="quotedblright" unicode="&#x201d;" horiz-adv-x="795" 
d="M160 1036v97c27.333 5.33301 48.833 24.5 64.5 57.5s23.5 76.5 23.5 130.5v10h-88v209h182v-211c0 -77.333 -16.333 -142 -49 -194s-77 -85 -133 -99zM451 1036v97c27.333 5.33301 48.833 24.5 64.5 57.5s23.5 76.5 23.5 130.5v10h-88v209h182v-211
c0 -77.333 -16.333 -142 -49 -194s-77 -85 -133 -99z" />
    <glyph glyph-name="quotedblbase" unicode="&#x201e;" horiz-adv-x="795" 
d="M160 -295v96c27.333 5.33301 48.833 24.5 64.5 57.5s23.5 76.833 23.5 131.5v10h-88v211h182v-211c0 -77.333 -16.333 -142.333 -49 -195s-77 -86 -133 -100zM451 -295v96c27.333 5.33301 48.833 24.5 64.5 57.5s23.5 76.833 23.5 131.5v10h-88v211h182v-211
c0 -77.333 -16.333 -142.333 -49 -195s-77 -86 -133 -100z" />
    <glyph glyph-name="dagger" unicode="&#x2020;" 
d="M430 -168v1124h-336v146h336v438h164v-438h334v-146h-334v-1124h-164z" />
    <glyph glyph-name="daggerdbl" unicode="&#x2021;" 
d="M430 -168v422h-326v145h326v574h-326v145h326v422h164v-422h324v-145h-324v-574h324v-145h-324v-422h-164z" />
    <glyph glyph-name="bullet" unicode="&#x2022;" horiz-adv-x="1208" 
d="M307 762c0 82 28.999 151.666 86.999 208.999s128 86 210 86c81.333 0 150.833 -28.833 208.5 -86.5s86.5 -127.167 86.5 -208.5s-29.167 -151.166 -87.5 -209.499s-128.166 -87.5 -209.499 -87.5c-82 0 -151.667 29 -209 87s-86 128 -86 210z" />
    <glyph glyph-name="ellipsis" unicode="&#x2026;" horiz-adv-x="2048" 
d="M250 0v211h182v-211h-182zM932 0v211h182v-211h-182zM1616 0v211h182v-211h-182z" />
    <glyph glyph-name="perthousand" unicode="&#x2030;" horiz-adv-x="2089" 
d="M1712 629c-50.667 0 -86.501 -19.999 -107.501 -59.999s-31.5 -110.333 -31.5 -211c0 -81.333 11.167 -140.833 33.5 -178.5s57.5 -56.5 105.5 -56.5c48.667 0 84.334 21.167 107.001 63.5s34 109.166 34 200.499c0 81.333 -11.5 142 -34.5 182s-58.5 60 -106.5 60z
M1434 383.001c0 124 22.666 216.499 67.999 277.499s114 91.5 206 91.5c96.667 0 168.334 -30.167 215.001 -90.5s70 -153.166 70 -278.499c0 -124 -24.167 -218.833 -72.5 -284.5s-117.833 -98.5 -208.5 -98.5c-95.333 0 -165.5 31 -210.5 93s-67.5 158.667 -67.5 290z
M1053 629c-50.667 0 -86.6689 -19.999 -108.002 -59.999s-32 -110.333 -32 -211c0 -81.333 11.333 -140.833 34 -178.5s58 -56.5 106 -56.5c48.667 0 84.334 21.167 107.001 63.5s34 109.166 34 200.499c0 81.333 -11.667 142 -35 182s-58.666 60 -105.999 60z
M773.996 383.001c0 123.333 23 215.666 69 276.999s115.333 92 208 92c96.667 0 168.167 -30.167 214.5 -90.5s69.5 -153.166 69.5 -278.499c0 -124 -24 -218.833 -72 -284.5s-117.333 -98.5 -208 -98.5c-96 0 -166.833 31.167 -212.5 93.5s-68.5 158.833 -68.5 289.5z
M372.996 1399c-50.667 0 -86.1689 -19.832 -106.502 -59.499s-30.5 -110.167 -30.5 -211.5c0 -82 10.833 -141.667 32.5 -179s56.5 -56 104.5 -56c48.667 0 84.334 21.167 107.001 63.5s34 109.166 34 200.499c0 81.333 -11.667 142 -35 182s-58.666 60 -105.999 60z
M93.9941 1153c0 123.333 22.998 215.667 68.998 277s115.333 92 208 92c96 0 167.333 -30.167 214 -90.5s70 -152.5 70 -276.5c0 -124.667 -24.167 -220 -72.5 -286s-118.166 -99 -209.499 -99c-95.333 0 -165.666 31 -210.999 93s-68 158.667 -68 290zM304.992 -28.9971
l694 1579h117l-692 -1579h-119z" />
    <glyph glyph-name="guilsinglleft" unicode="&#x2039;" horiz-adv-x="565" 
d="M434 186l-303 320v145l303 314v-187l-196 -200l196 -205v-187z" />
    <glyph glyph-name="guilsinglright" unicode="&#x203a;" horiz-adv-x="565" 
d="M131 965l303 -318v-147l-303 -314v187l197 200l-197 205v187z" />
    <glyph glyph-name="franc" unicode="&#x20a3;" horiz-adv-x="1481" 
d="M137 0v1540h711v-156h-535v-495h498v-160h-498v-729h-176zM1008 0l-0.000976562 1151h149v-188c23.333 67.333 58.5 120 105.5 158s100.833 57 161.5 57c18 0 31.833 -0.333008 41.5 -1s18.834 -1.66699 27.501 -3v-172c-8.66699 4.66699 -18.167 8.16699 -28.5 10.5
s-21.833 3.5 -34.5 3.5c-82.667 0 -147 -27.333 -193 -82s-69 -131 -69 -229v-705h-160z" />
    <glyph glyph-name="trademark" unicode="&#x2122;" horiz-adv-x="1706" 
d="M963 1458l151 -385l141 385h150v-538h-98v444l-166 -444h-56l-174 444v-444h-98v538h150zM694 1458v-80h-172v-458h-108v458h-172v80h452z" />
    <glyph glyph-name="partialdiff" unicode="&#x2202;" horiz-adv-x="1059" 
d="M756 621c10 58 17.502 114.164 22.502 168.497s7.5 106.5 7.5 156.5c0 86 -12.167 150.833 -36.5 194.5s-60.5 65.5 -108.5 65.5c-36.667 0 -79 -19.333 -127 -58s-84 -58 -108 -58s-44 7.33301 -60 22s-24 32.334 -24 53.001c0 41.333 24 78.333 72 111
s105.667 49 173 49c120 0 215.667 -51.667 287 -155s107 -242.666 107 -417.999c0 -223.333 -48.167 -408.666 -144.5 -555.999s-215.5 -221 -357.5 -221c-101.333 0 -185.833 36 -253.5 108s-101.5 162.333 -101.5 271c0 132 36.833 240.833 110.5 326.5
s164.5 128.5 272.5 128.5c67.333 0 122.666 -15.167 165.999 -45.5s77.666 -77.833 102.999 -142.5zM707.002 493.997c0 77.333 -14.5 136.833 -43.5 178.5s-69.833 62.5 -122.5 62.5c-72.667 0 -132.5 -43 -179.5 -129s-70.5 -198 -70.5 -336
c0 -77.333 14.333 -136.5 43 -177.5s69.667 -61.5 123 -61.5c72.667 0 132.5 43.333 179.5 130s70.5 197.667 70.5 333z" />
    <glyph glyph-name="Delta" unicode="&#x2206;" horiz-adv-x="1370" 
d="M684 1262l-418 -1084h836zM573 1473h224l579 -1473h-1382z" />
    <glyph glyph-name="product" unicode="&#x220f;" horiz-adv-x="1550" 
d="M156 1473h1237v-1866h-240v1661h-758v-1661h-239v1866z" />
    <glyph glyph-name="summation" unicode="&#x2211;" horiz-adv-x="1380" 
d="M55 1473h1258v-193h-959l672 -717l-694 -764h1007v-192h-1314v149l725 801l-695 739v177z" />
    <glyph glyph-name="minus" unicode="&#x2212;" horiz-adv-x="1706" 
d="M1452 682v-141h-1198v141h1198z" />
    <glyph glyph-name="fraction" unicode="&#x2215;" horiz-adv-x="342" 
d="M-217 -31h-125l899 1581h125z" />
    <glyph glyph-name="periodcentered" unicode="&#x2219;" horiz-adv-x="512" 
d="M125 762c0 36.667 12.332 67.334 36.999 92.001s55.334 37 92.001 37c37.333 0 68.5 -12.333 93.5 -37s37.5 -55.334 37.5 -92.001s-12.833 -67.667 -38.5 -93s-56.5 -38 -92.5 -38s-66.5 12.667 -91.5 38s-37.5 56.333 -37.5 93z" />
    <glyph glyph-name="radical" unicode="&#x221a;" horiz-adv-x="1305" 
d="M1116 1661h189v-96h-115l-594 -1606h-66l-319 883l-125 -45l-25 80l283 98l256 -709z" />
    <glyph glyph-name="infinity" unicode="&#x221e;" horiz-adv-x="1706" 
d="M915 559c32.667 -58.667 71.3311 -103 115.998 -133s95 -45 151 -45c67.333 0 122.333 22.5 165 67.5s64 102.5 64 172.5c0 67.333 -19.667 123.333 -59 168s-88.666 67 -147.999 67c-54.667 0 -104.167 -22.5 -148.5 -67.5s-91.166 -121.5 -140.499 -229.5zM792.997 666
c-32.667 58.667 -71.168 102.668 -115.501 132.001s-94.833 44 -151.5 44c-68 0 -123.167 -22 -165.5 -66s-63.5 -101.333 -63.5 -172c0 -67.333 19.667 -123.333 59 -168s88.666 -67 147.999 -67c54.667 0 104.334 22.667 149.001 68s91.334 121.666 140.001 228.999z
M863.996 483.001c-46.667 -90 -96.166 -156.168 -148.499 -198.501s-109.833 -63.5 -172.5 -63.5c-90.667 0 -167 37.167 -229 111.5s-93 166.833 -93 277.5c0 116.667 27.833 211 83.5 283s128.167 108 217.5 108c63.333 0 120.5 -21 171.5 -63s100.5 -109 148.5 -201
c45.333 92 94.333 159.833 147 203.5s111.334 65.5 176.001 65.5c89.333 0 165.333 -37.5 228 -112.5s94 -168.167 94 -279.5c0 -116.667 -27.833 -210.667 -83.5 -282s-128.167 -107 -217.5 -107c-62.667 0 -118.834 19.833 -168.501 59.5
s-100.834 105.834 -153.501 198.501z" />
    <glyph glyph-name="integral" unicode="&#x222b;" horiz-adv-x="1067" 
d="M311 -262c70.667 0 110.668 229.334 120.001 688.001l3 165c8 343.333 43.667 589 107 737s162.333 222 297 222c53.333 0 96.666 -14 129.999 -42s50 -63.667 50 -107c0 -36 -10.667 -64.5 -32 -85.5s-50.333 -31.5 -87 -31.5c-28 0 -51.333 6.33301 -70 19
s-32 30.667 -40 54c-4 10 -7.5 27 -10.5 51s-9.83301 36 -20.5 36c-71.333 0 -111.666 -206.333 -120.999 -619c-2.66699 -128.667 -5.33398 -229.667 -8.00098 -303c-11.333 -319.333 -48.5 -548 -111.5 -686s-159.833 -207 -290.5 -207
c-52.667 0 -95.834 13.833 -129.501 41.5s-50.5 63.167 -50.5 106.5c0 37.333 11.333 66.5 34 87.5s54.334 31.5 95.001 31.5c22 0 41 -4.83301 57 -14.5s29 -23.834 39 -42.501c6.66699 -12 11.667 -31.833 15 -59.5s11.333 -41.5 24 -41.5z" />
    <glyph glyph-name="approxequal" unicode="&#x2248;" horiz-adv-x="1706" 
d="M1530 430c-70 -48.667 -136.498 -84.334 -199.498 -107.001s-126.167 -34 -189.5 -34s-158.333 22.5 -285 67.5s-224.334 67.5 -293.001 67.5c-54.667 0 -111.834 -12 -171.501 -36s-130.834 -64.667 -213.501 -122v156c72 48.667 140 85 204 109s125 36 183 36
c76.667 0 178.334 -22.833 305.001 -68.5s217.667 -68.5 273 -68.5c58.667 0 117.667 11.833 177 35.5s129.333 63.834 210 120.501v-156zM1530 799c-70 -48.667 -136.498 -84.5 -199.498 -107.5s-126.167 -34.5 -189.5 -34.5s-158.333 22.667 -285 68
s-224.334 68 -293.001 68c-55.333 0 -112.5 -12 -171.5 -36s-130.167 -64.667 -213.5 -122v156c70.667 48 138 83.833 202 107.5s125.667 35.5 185 35.5c77.333 0 179.166 -22.5 305.499 -67.5s217.166 -67.5 272.499 -67.5c58 0 116.333 11.5 175 34.5
s129.334 63.167 212.001 120.5v-155z" />
    <glyph glyph-name="notequal" unicode="&#x2260;" horiz-adv-x="1706" 
d="M1313 1112l-187 -235h326v-136h-416l-205 -262h621v-135h-709l-249 -317l-105 84l184 233h-319v135h408l204 262h-612v136h702l252 317z" />
    <glyph glyph-name="lessequal" unicode="&#x2264;" horiz-adv-x="1706" 
d="M1446 162v-139h-1184v139h1184zM1444 1059l-936 -309l936 -306v-149l-1182 395v121l1182 395v-147z" />
    <glyph glyph-name="greaterequal" unicode="&#x2265;" horiz-adv-x="1706" 
d="M1446 162v-139h-1184v139h1184zM1446 811v-121l-1184 -395v149l938 306l-938 309v147z" />
    <glyph glyph-name="lozenge" unicode="&#x25ca;" horiz-adv-x="1012" 
d="M506 1409l-385 -817l385 -825l385 825zM506 1653l500 -1061l-500 -1069l-500 1069z" />
    <glyph glyph-name="apple" unicode="&#xf000;" horiz-adv-x="1618" 
d="M836 1216c-0.666992 4 -1.16699 8.66895 -1.5 14.002s-0.5 13 -0.5 23c0 82.667 31.667 159.167 95 229.5s142 114.166 236 131.499c0.666992 -6.66699 1.16699 -14.334 1.5 -23.001s0.5 -21.667 0.5 -39c0 -87.333 -34.5 -165.5 -103.5 -234.5
s-136.833 -103.5 -203.5 -103.5h-8c-2 0 -4.5 0.333008 -7.5 1s-5.83301 1 -8.5 1zM1505 403.002c-76 -164.667 -144.336 -278.834 -205.003 -342.501s-128.667 -95.5 -204 -95.5c-33.333 0 -77.166 11 -131.499 33s-95.166 33 -122.499 33c-30 0 -73.667 -11 -131 -33
s-99.666 -33 -126.999 -33c-42.667 0 -85.5 14.667 -128.5 44s-86.167 73.333 -129.5 132c-68 93.333 -120.5 191.833 -157.5 295.5s-55.5 203.834 -55.5 300.501c0 146 41.667 264.833 125 356.5s191 137.5 323 137.5c45.333 0 97 -11.333 155 -34s99.333 -34 124 -34
c22.667 0 63.167 11.667 121.5 35s109.166 35 152.499 35c73.333 0 139.333 -13.333 198 -40s112.334 -68 161.001 -124c-68 -43.333 -118.5 -91.833 -151.5 -145.5s-49.5 -114.5 -49.5 -182.5c0 -75.333 20 -142 60 -200s97.667 -104 173 -138z" />
    <glyph glyph-name="fi" unicode="&#xf001;" horiz-adv-x="922" 
d="M166 0v1018h-164v133h164v156c0 83.333 21.833 144.333 65.5 183s112.5 58 206.5 58c13.333 0 25.333 -0.666992 36 -2s20.667 -3.33301 30 -6l-1 -143c-13.333 2.66699 -24.833 4.66699 -34.5 6s-19.167 2 -28.5 2c-40 0 -68 -8 -84 -24s-24 -45 -24 -87v-143h172v-133
h-172v-1018h-166zM641 0v1151h166v-1151h-166zM641 1331v209h166v-209h-166z" />
    <glyph glyph-name="fi" unicode="&#xfb01;" horiz-adv-x="922" 
d="M166 0v1018h-164v133h164v156c0 83.333 21.833 144.333 65.5 183s112.5 58 206.5 58c13.333 0 25.333 -0.666992 36 -2s20.667 -3.33301 30 -6l-1 -143c-13.333 2.66699 -24.833 4.66699 -34.5 6s-19.167 2 -28.5 2c-40 0 -68 -8 -84 -24s-24 -45 -24 -87v-143h172v-133
h-172v-1018h-166zM641 0v1151h166v-1151h-166zM641 1331v209h166v-209h-166z" />
    <glyph glyph-name="fl" unicode="&#xf002;" horiz-adv-x="922" 
d="M166 0l0.000976562 1018h-164v133h164v156c0 83.333 21.833 144.333 65.5 183s112.5 58 206.5 58c13.333 0 25.333 -0.666992 36 -2s20.667 -3.33301 30 -6l-1 -143c-13.333 2.66699 -24.833 4.66699 -34.5 6s-19.167 2 -28.5 2
c-40.667 0 -68.834 -8.16699 -84.501 -24.5s-23.5 -46.5 -23.5 -90.5v-139h172v-133h-172v-1018h-166zM641.001 0v1540h166v-1540h-166z" />
    <glyph glyph-name="fl" unicode="&#xfb02;" horiz-adv-x="922" 
d="M166 0l0.000976562 1018h-164v133h164v156c0 83.333 21.833 144.333 65.5 183s112.5 58 206.5 58c13.333 0 25.333 -0.666992 36 -2s20.667 -3.33301 30 -6l-1 -143c-13.333 2.66699 -24.833 4.66699 -34.5 6s-19.167 2 -28.5 2
c-40.667 0 -68.834 -8.16699 -84.501 -24.5s-23.5 -46.5 -23.5 -90.5v-139h172v-133h-172v-1018h-166zM641.001 0v1540h166v-1540h-166z" />
    <glyph glyph-name=".null" horiz-adv-x="0" 
 />
    <glyph glyph-name="nonmarkingreturn" horiz-adv-x="510" 
 />
    </font>
</defs>
</svg>
